<svg xmlns="http://www.w3.org/2000/svg" width="228" height="49" fill="none"><rect width="227" height="48" x=".5" y=".5" fill="#28282C" stroke="url(#a)" rx="3.5"/><path fill="url(#b)" d="M51.37 12c-2.907 0-6.075 1.517-9.425 4.504-1.589 1.415-2.96 2.932-3.99 4.145l.01.01v-.01s1.624 1.801 3.42 3.732c.967-1.168 2.357-2.758 3.955-4.192 2.979-2.656 4.92-3.217 6.03-3.217 4.18 0 7.575 3.374 7.575 7.519 0 4.117-3.404 7.49-7.575 7.518-.19 0-.433-.027-.74-.092 1.219.533 2.528.92 3.774.92 7.655 0 9.154-5.083 9.253-5.45.226-.93.343-1.904.343-2.905C64 17.607 58.33 12 51.37 12Z"/><path fill="url(#c)" d="M24.63 37c2.907 0 6.076-1.517 9.425-4.504 1.589-1.415 2.96-2.932 3.99-4.145l-.009-.01v.01s-1.625-1.802-3.422-3.732c-.965 1.168-2.356 2.758-3.954 4.192-2.979 2.656-4.92 3.217-6.03 3.217-4.18-.01-7.575-3.383-7.575-7.528 0-4.118 3.404-7.49 7.575-7.518.19 0 .433.027.74.091-1.219-.533-2.528-.919-3.774-.919-7.655 0-9.145 5.083-9.253 5.442A12.348 12.348 0 0 0 12 24.5C12 31.393 17.67 37 24.63 37Z"/><path fill="#29ABE2" d="M54.386 32.726c-3.919-.101-7.99-3.244-8.82-4.026-2.15-2.022-7.105-7.49-7.494-7.922C34.443 16.632 29.523 12 24.63 12h-.018c-5.94.028-10.933 4.127-12.269 9.596.1-.359 2.059-5.543 9.245-5.359 3.918.101 8.007 3.29 8.847 4.072 2.149 2.022 7.105 7.49 7.493 7.923C41.558 32.368 46.478 37 51.37 37h.018c5.94-.028 10.942-4.127 12.27-9.596-.11.359-2.077 5.497-9.272 5.322Z"/><path fill="#fff" d="M73.03 33.827a.5.5 0 0 0 .5-.5v-6.665a.5.5 0 0 0-.5-.5h-.53a.5.5 0 0 0-.5.5v6.665a.5.5 0 0 0 .5.5h.53Zm10.172 0a.5.5 0 0 0 .5-.5v-6.665a.5.5 0 0 0-.5-.5h-.508a.5.5 0 0 0-.5.5v4.57l-2.93-4.606a1 1 0 0 0-.844-.464h-.83a.5.5 0 0 0-.5.5v6.665a.5.5 0 0 0 .5.5h.508a.5.5 0 0 0 .5-.5v-4.938l3.371 5.21a.5.5 0 0 0 .42.228h.813Zm9.252-6.249a.5.5 0 0 0 .5-.5v-.416a.5.5 0 0 0-.5-.5h-5.416a.5.5 0 0 0-.5.5v.416a.5.5 0 0 0 .5.5h1.948v5.749a.5.5 0 0 0 .5.5h.52a.5.5 0 0 0 .5-.5v-5.749h1.948Zm7.684 6.249a.5.5 0 0 0 .5-.5v-.405a.5.5 0 0 0-.5-.5h-2.844v-1.773h2.528a.5.5 0 0 0 .5-.5v-.33a.5.5 0 0 0-.5-.5h-2.528v-1.751h2.844a.5.5 0 0 0 .5-.5v-.406a.5.5 0 0 0-.5-.5h-3.852a.5.5 0 0 0-.5.5v6.665a.5.5 0 0 0 .5.5h3.852Zm7.412-.271a.499.499 0 0 0 .444.271h.547a.5.5 0 0 0 .442-.734l-1.272-2.401c1.016-.292 1.65-1.103 1.65-2.173 0-1.33-.961-2.357-2.47-2.357h-2.527a.5.5 0 0 0-.5.5v6.665a.5.5 0 0 0 .5.5h.519a.5.5 0 0 0 .5-.5v-2.451h.787l1.38 2.68Zm-2.167-3.967v-2.13h1.224c.765 0 1.213.422 1.213 1.07 0 .628-.448 1.06-1.213 1.06h-1.224Zm13.226 4.238a.5.5 0 0 0 .5-.5v-6.665a.5.5 0 0 0-.5-.5h-.508a.5.5 0 0 0-.5.5v4.57l-2.93-4.606a.998.998 0 0 0-.843-.464h-.831a.5.5 0 0 0-.5.5v6.665a.5.5 0 0 0 .5.5h.508a.5.5 0 0 0 .5-.5v-4.938l3.372 5.21a.5.5 0 0 0 .419.228h.813Zm8.421 0a.5.5 0 0 0 .5-.5v-.405a.5.5 0 0 0-.5-.5h-2.844v-1.773h2.527a.5.5 0 0 0 .5-.5v-.33a.5.5 0 0 0-.5-.5h-2.527v-1.751h2.844a.5.5 0 0 0 .5-.5v-.406a.5.5 0 0 0-.5-.5h-3.852a.5.5 0 0 0-.5.5v6.665a.5.5 0 0 0 .5.5h3.852Zm8.909-6.249a.5.5 0 0 0 .5-.5v-.416a.5.5 0 0 0-.5-.5h-5.416a.5.5 0 0 0-.5.5v.416a.5.5 0 0 0 .5.5h1.948v5.749a.5.5 0 0 0 .5.5h.52a.5.5 0 0 0 .5-.5v-5.749h1.948Zm10.884 6.412c2.175 0 3.29-1.428 3.585-2.606l-1.41-.422c-.208.714-.852 1.568-2.175 1.568-1.246 0-2.404-.898-2.404-2.53 0-1.74 1.224-2.562 2.382-2.562 1.345 0 1.946.81 2.131 1.546l1.421-.444c-.306-1.243-1.41-2.54-3.552-2.54-2.076 0-3.945 1.557-3.945 4s1.803 3.99 3.967 3.99Zm7.605-4c0-1.73 1.225-2.552 2.416-2.552 1.202 0 2.426.822 2.426 2.551 0 1.73-1.224 2.552-2.426 2.552-1.191 0-2.416-.822-2.416-2.552Zm-1.562.01c0 2.465 1.879 3.99 3.978 3.99 2.109 0 3.989-1.525 3.989-3.99 0-2.476-1.88-4-3.989-4-2.099 0-3.978 1.524-3.978 4Zm19.211 3.827a.5.5 0 0 0 .5-.5v-6.665a.5.5 0 0 0-.5-.5h-1.219a.5.5 0 0 0-.463.31l-2.146 5.225-2.199-5.229a.5.5 0 0 0-.461-.306h-1.157a.5.5 0 0 0-.5.5v6.665a.5.5 0 0 0 .5.5h.443a.5.5 0 0 0 .5-.5v-4.83l2.101 5.023a.5.5 0 0 0 .461.307h.591a.499.499 0 0 0 .461-.308l2.102-5.065v4.873a.5.5 0 0 0 .5.5h.486Zm5.583-4.173V27.46h1.191c.754 0 1.214.422 1.214 1.103 0 .66-.46 1.092-1.214 1.092h-1.191Zm1.377 1.287c1.53 0 2.547-.995 2.547-2.39 0-1.383-1.017-2.389-2.547-2.389h-2.396a.5.5 0 0 0-.5.5v6.665a.5.5 0 0 0 .5.5h.508a.5.5 0 0 0 .5-.5v-2.386h1.388ZM187.414 34c1.662 0 2.984-1.005 2.984-2.887v-4.45a.5.5 0 0 0-.5-.5h-.508a.5.5 0 0 0-.5.5v4.342c0 1.006-.558 1.536-1.476 1.536-.896 0-1.464-.53-1.464-1.536v-4.343a.5.5 0 0 0-.5-.5h-.509a.5.5 0 0 0-.5.5v4.451c0 1.882 1.323 2.887 2.973 2.887Zm11.667-6.422a.5.5 0 0 0 .5-.5v-.416a.5.5 0 0 0-.5-.5h-5.415a.5.5 0 0 0-.5.5v.416a.5.5 0 0 0 .5.5h1.948v5.749a.5.5 0 0 0 .5.5h.519a.5.5 0 0 0 .5-.5v-5.749h1.948Zm7.685 6.249a.5.5 0 0 0 .5-.5v-.405a.5.5 0 0 0-.5-.5h-2.844v-1.773h2.527a.5.5 0 0 0 .5-.5v-.33a.5.5 0 0 0-.5-.5h-2.527v-1.751h2.844a.5.5 0 0 0 .5-.5v-.406a.5.5 0 0 0-.5-.5h-3.853a.5.5 0 0 0-.5.5v6.665a.5.5 0 0 0 .5.5h3.853Zm7.411-.271a.501.501 0 0 0 .445.271h.547a.5.5 0 0 0 .442-.734l-1.272-2.401c1.016-.292 1.65-1.103 1.65-2.173 0-1.33-.962-2.357-2.47-2.357h-3.027v7.165a.5.5 0 0 0 .5.5h.519a.5.5 0 0 0 .5-.5v-2.451h.787l1.379 2.68Zm-2.166-3.967v-2.13h1.224c.765 0 1.213.422 1.213 1.07 0 .628-.448 1.06-1.213 1.06h-1.224ZM73.002 21v-3.366h3.421v-.847h-3.421v-2.739h3.762v-.847h-4.686V21h.924Zm8.294-.715v.044c0 .264.022.55.055.671h.847a6.972 6.972 0 0 1-.066-.99v-4.279h-.88v3.179c0 .836-.473 1.452-1.342 1.452-.935 0-1.298-.693-1.298-1.463v-3.168h-.88v3.311c0 1.166.704 2.112 1.98 2.112.693 0 1.331-.33 1.584-.869Zm3.43.715v-7.953h-.88V21h.88Zm2.6 0v-7.953h-.88V21h.88Zm3.062 2.09 3.376-7.359h-.956l-1.64 3.729-1.738-3.729h-1.012l2.266 4.642-1.275 2.717h.978Zm9.217-7.513c-1.518 0-2.64 1.166-2.64 2.783 0 1.628 1.122 2.794 2.64 2.794s2.64-1.166 2.64-2.794c0-1.617-1.122-2.783-2.64-2.783Zm0 .792c.946 0 1.76.715 1.76 1.991 0 1.287-.814 2.002-1.76 2.002-.946 0-1.76-.715-1.76-2.002 0-1.276.814-1.991 1.76-1.991Zm4.876 1.529c0-.825.473-1.529 1.32-1.529.957 0 1.309.616 1.309 1.386V21h.88v-3.377c0-1.144-.616-2.046-1.881-2.046-.693 0-1.309.33-1.65.946v-.792h-.858V21h.88v-3.102Zm7.984.33v-.77h-2.937v.77h2.937Zm3.854-1.859c.946 0 1.375.649 1.518 1.21l.792-.341c-.22-.836-.957-1.661-2.31-1.661-1.485 0-2.607 1.144-2.607 2.783 0 1.606 1.1 2.794 2.618 2.794 1.353 0 2.09-.858 2.343-1.639l-.77-.341c-.154.484-.572 1.188-1.573 1.188-.935 0-1.738-.737-1.738-2.002 0-1.276.803-1.991 1.727-1.991Zm4.49 1.485c0-.814.484-1.485 1.32-1.485.957 0 1.309.616 1.309 1.386V21h.88v-3.377c0-1.144-.616-2.046-1.881-2.046-.682 0-1.287.308-1.628.858v-3.388h-.88V21h.88v-3.146Zm4.783 1.749c0 .803.649 1.551 1.738 1.551.946 0 1.518-.517 1.749-.946 0 .407.044.671.066.792h.858a4.607 4.607 0 0 1-.066-.88v-2.662c0-1.023-.627-1.881-2.123-1.881-1.133 0-2.013.682-2.123 1.683l.836.198c.077-.671.539-1.133 1.309-1.133.825 0 1.221.451 1.221 1.045 0 .231-.088.396-.473.451l-1.419.209c-.924.132-1.573.649-1.573 1.573Zm1.848.803c-.605 0-.968-.418-.968-.847 0-.517.363-.803.869-.88l1.716-.253v.352c0 1.122-.704 1.628-1.617 1.628Zm5.035.594v-5.269h-.88V21h.88Zm-1.1-7.348c0 .363.297.66.66.66.363 0 .66-.297.66-.66a.662.662 0 0 0-.66-.66.662.662 0 0 0-.66.66Zm3.7 4.246c0-.825.473-1.529 1.32-1.529.957 0 1.309.616 1.309 1.386V21h.88v-3.377c0-1.144-.616-2.046-1.881-2.046-.693 0-1.309.33-1.65.946v-.792h-.858V21h.88v-3.102Z"/><defs><linearGradient id="a" x1="32.691" x2="46.976" y1="7.026" y2="73.493" gradientUnits="userSpaceOnUse"><stop stop-color="#A1A2A7"/><stop offset="1" stop-color="#565861"/></linearGradient><linearGradient id="b" x1="44.796" x2="62.287" y1="13.648" y2="31.439" gradientUnits="userSpaceOnUse"><stop offset=".21" stop-color="#F15A24"/><stop offset=".684" stop-color="#FBB03B"/></linearGradient><linearGradient id="c" x1="31.204" x2="13.714" y1="35.352" y2="17.561" gradientUnits="userSpaceOnUse"><stop offset=".21" stop-color="#ED1E79"/><stop offset=".893" stop-color="#522785"/></linearGradient></defs></svg>