<svg xmlns="http://www.w3.org/2000/svg" width="12450.654" height="6341.223" viewBox="0 0 4150.218 2113.741"><defs><style>@font-face{font-family:&quot;Virgil&quot;;src:url(https://excalidraw.com/Virgil.woff2)}@font-face{font-family:&quot;Cascadia&quot;;src:url(https://excalidraw.com/Cascadia.woff2)}</style></defs><path fill="#e6fcf5" d="M0 0h4150.218v2113.741H0z"/><path fill="none" stroke="#5f3dc4" stroke-linecap="round" stroke-width="4" d="M247.5 1025.105c174.48 5.09 347.65 2.99 695 0m-695 0c218.59-4.87 437.39-4.69 695 0m0 0c160.95-2.63 235.46 77.86 237.5 237.5m-237.5-237.5c160.79 2.45 236.43 79.45 237.5 237.5m0 0c1.46 137.39 1.64 278.8 0 475m0-475c.52 133.63-.33 265.86 0 475m0 0c.8 154.65-76.81 241.27-237.5 237.5m237.5-237.5c3.8 156.43-80.24 240.18-237.5 237.5m0 0c-149.5-3.99-300.32-3.68-695 0m695 0c-247.99 2.67-495.8 2.05-695 0m0 0c-157.18 1.99-237.76-79.65-237.5-237.5m237.5 237.5c-157.24-.47-239.15-77.65-237.5-237.5m0 0c-3.71-173.94-2.1-346.46 0-475m0 475c-2.28-184.82-1.68-369.12 0-475m0 0c1.49-156.75 80.5-234.06 237.5-237.5M10 1262.605c-.79-162.9 81.98-234.7 237.5-237.5"/><text x="580" y="32" fill="#5f3dc4" font-family="Virgil, Segoe UI Emoji" font-size="36" style="white-space:pre" text-anchor="middle" transform="translate(15 1030.105)">NOMOS Platfrom</text><path fill="none" stroke="#862e9c" stroke-linecap="round" stroke-width="2" d="M436.7 25.6c99.02-.2 196.92.5 327 0m-327 0c88-.48 176.66-.34 327 0m0 0c109.77-1.81 164.46 55.68 163.5 163.5M763.7 25.6c108.94-1.45 164.54 53.38 163.5 163.5m0 0c-.17 177.52-1.06 357.04 0 464m0-464c.2 156.93.29 312.88 0 464m0 0c-.57 110.6-53.39 163.46-163.5 163.5m163.5-163.5c1.02 110.81-52.49 165.23-163.5 163.5m0 0c-87.54-2.42-177.84-1.95-327 0m327 0c-107.91.12-217.14.92-327 0m0 0c-107.68.7-164.83-55.96-163.5-163.5m163.5 163.5c-110.4-.15-162.22-53.4-163.5-163.5m0 0c.17-184.94.87-370.13 0-464m0 464c.67-103.97 1.3-208.66 0-464m0 0C271.5 81.7 327.91 24.89 436.7 25.6M273.2 189.1c.51-109.35 56.4-162.79 163.5-163.5"/><text x="322" y="26" fill="#862e9c" font-family="Helvetica, Segoe UI Emoji" font-size="28" style="white-space:pre" text-anchor="middle" transform="translate(278.2 30.6)">NNSDAO protocol</text><path fill="none" stroke="#862e9c" stroke-linecap="round" stroke-width="2" d="M481.273 311.025c79.06 5.48 154.09 3.97 233.96 0m-233.96 0c66.96-2.78 136.12-1.98 233.96 0m0 0c15.08-1.88 29.72 7.12 27.52 27.52m-27.52-27.52c18.4 3.74 24.21 4.9 27.52 27.52m0 0c1.7 9.21 2.35 25.32 0 55.04m0-55.04c1.84 18.81.5 40.04 0 55.04m0 0c3.49 15.28-9.65 26.47-27.52 27.52m27.52-27.52c-1.4 19.45-6.59 31.36-27.52 27.52m0 0c-86.23 1.49-171.48 3.1-233.96 0m233.96 0c-51.55-1.44-102.37-.51-233.96 0m0 0c-15.46-.15-23.56-6.8-27.52-27.52m27.52 27.52c-14.73-2.17-25.15-10.24-27.52-27.52m0 0c-3.96-13.79-2.64-27.31 0-55.04m0 55.04c2.08-18.62.36-35.44 0-55.04m0 0c-2.85-21.77 8.91-25.36 27.52-27.52m-27.52 27.52c3.31-16.74 8.39-23.61 27.52-27.52m.494-166.981c79.81.95 166.17-3.58 233.96 0m-233.96 0c51.1 2.06 103.4 3.1 233.96 0m0 0c16.14 2.13 30.92 5.82 27.52 27.52m-27.52-27.52c17.46 1.08 23.83 12.91 27.52 27.52m0 0c2.28 17.55-1.21 32.31 0 55.04m0-55.04c-.27 12.82 1.42 24.93 0 55.04m0 0c-3.15 17.44-5.25 27.37-27.52 27.52m27.52-27.52c2.47 15.69-9.55 27.53-27.52 27.52m0 0c-75.38-4.03-153.25-6.33-233.96 0m233.96 0c-47.99-.36-97.43-.11-233.96 0m0 0c-20.68-.12-30.87-7.67-27.52-27.52m27.52 27.52c-20.71-1.64-27.75-9.06-27.52-27.52m0 0c-.08-21.56 1.67-34.14 0-55.04m0 55.04c.56-13.59.33-23.41 0-55.04m0 0c0-16.91 9.26-29.96 27.52-27.52m-27.52 27.52c.4-20.6 7.61-32.1 27.52-27.52"/><text x="139.5" y="26" fill="#862e9c" font-family="Helvetica, Segoe UI Emoji" font-size="28" style="white-space:pre" text-anchor="middle" transform="translate(459.247 183.084)">DAOBasic SDK</text><text x="139.5" y="26" fill="#862e9c" font-family="Helvetica, Segoe UI Emoji" font-size="28" style="white-space:pre" text-anchor="middle" transform="translate(458.753 350.064)">NNSDAO SDK</text><path fill="none" stroke="#862e9c" stroke-linecap="round" stroke-width="2" d="M1281.608 92.86c86.33-1.43 172.39 2.25 255.83 0m-255.83 0c65.45 3.52 128.69 3.49 255.83 0m0 0c85.64-1.5 126.38 38.7 127.92 127.92m-127.92-127.92c80.96-4.42 126.98 45.29 127.92 127.92m0 0c-.76 78.47-2.78 151.63 0 301.91m0-301.91c-4.82 105.45-2.85 210.36 0 301.91m0 0c-1.12 88.08-41.11 128.51-127.92 127.92m127.92-127.92c-3.7 87.55-38.89 124.61-127.92 127.92m0 0c-57.45-4.1-117.17-.58-255.83 0m255.83 0c-57.94-2.06-118.35-2.52-255.83 0m0 0c-82.45 3.28-124.1-42.81-127.92-127.92m127.92 127.92c-87.53-1.61-124.77-43.91-127.92-127.92m0 0c.76-71.44 5.51-139.89 0-301.91m0 301.91c-.18-108.79-.07-218.09 0-301.91m0 0c-.92-83.78 42.06-130.04 127.92-127.92m-127.92 127.92c2.13-85.12 42.29-128.79 127.92-127.92"/><text x="98" y="26" fill="#862e9c" font-family="Helvetica, Segoe UI Emoji" font-size="28" style="white-space:pre" text-anchor="middle" transform="translate(1295.035 119.497)">DAOBasic SDK</text><text x="231.767" y="25.189" fill="#c92a2a" font-family="Helvetica, Segoe UI Emoji" font-size="25.944" style="white-space:pre" text-anchor="middle" transform="translate(1178.661 177.37)">It provides the most basic DAO </text><text x="231.767" y="56.378" fill="#c92a2a" font-family="Helvetica, Segoe UI Emoji" font-size="25.944" style="white-space:pre" text-anchor="middle" transform="translate(1178.661 177.37)">functionality and interfaces to implement</text><path fill="none" stroke="#364fc7" stroke-linecap="round" stroke-width="2" d="M1348.96 333.6c24.83-1.79 56.62-.17 119.01 0m-119.01 0c38.18.45 74.65-.48 119.01 0m0 0c5.8-2.32 7.01 7.36 10.5 10.5m-10.5-10.5c5.41-1.9 10.22-.41 10.5 10.5m0 0c3.41 7.89-3.52 10.28 0 21m0-21c1.4 3.51-1.17 9.44 0 21m0 0c-2.35 9.4-5.82 11.79-10.5 10.5m10.5-10.5c1.01 9.4-5.75 6.29-10.5 10.5m0 0c-38.09-2.21-83.49 2.54-119.01 0m119.01 0c-29.69 1.11-60.31-1.42-119.01 0m0 0c-6.03 1.47-7.4-.41-10.5-10.5m10.5 10.5c-10.18-3.57-9.6-3.42-10.5-10.5m0 0c-2.75-8.09.36-13.3 0-21m0 21c.78-6.29.68-16.49 0-21m0 0c3.42-7.82 2.95-10.74 10.5-10.5m-10.5 10.5c-2.47-6.96 4.86-14.79 10.5-10.5"/><text x="65" y="26" fill="#364fc7" font-family="Helvetica, Segoe UI Emoji" font-size="28" style="white-space:pre" text-anchor="middle" transform="translate(1343.46 338.6)">proposal</text><path fill="none" stroke="#364fc7" stroke-linecap="round" stroke-width="2" d="M1349.234 261.302c34.83-2.56 65.43.41 119.01 0m-119.01 0c40.6.42 83.08 1.1 119.01 0m0 0c9.75 3.19 13.17 1.75 10.5 10.5m-10.5-10.5c3.17.6 8.87 7.54 10.5 10.5m0 0c3.46 7.62-2.6 15.08 0 21m0-21c.74 3.88 1.49 11.06 0 21m0 0c1.91 7.08-1.18 7.38-10.5 10.5m10.5-10.5c1.51 9.88-1.91 12.86-10.5 10.5m0 0c-21.54-1.78-49.81-2.61-119.01 0m119.01 0c-36.36-.59-71.77-.17-119.01 0m0 0c-7.76-2.98-8.01-5.25-10.5-10.5m10.5 10.5c-11.15-3.33-7.55.88-10.5-10.5m0 0c.46-3.2 1.84-8.74 0-21m0 21c-.09-4.39.96-7.91 0-21m0 0c.27-7.82.74-13.25 10.5-10.5m-10.5 10.5c4.56-5.33 7.76-9.77 10.5-10.5"/><text x="65" y="26" fill="#364fc7" font-family="Helvetica, Segoe UI Emoji" font-size="28" style="white-space:pre" text-anchor="middle" transform="translate(1343.734 266.302)">vote</text><path fill="none" stroke="#364fc7" stroke-linecap="round" stroke-width="2" d="M1265.74 562.668c114.61-2.38 226.71-5.58 286 0m-286 0c89.8-1.51 176.06.19 286 0m0 0c9.7 3.1 14.01 2.48 10.5 10.5m-10.5-10.5c7.78-1.96 7.34-.11 10.5 10.5m0 0c3.3 5.91.08 13.69 0 21m0-21c-.04 6.47-.67 14.04 0 21m0 0c-.14 7.58-5.29 7.82-10.5 10.5m10.5-10.5c-2.5 8.39-1.87 6.64-10.5 10.5m0 0c-58.81 1.56-114.33 4.95-286 0m286 0c-90.42-1.58-181.01-.1-286 0m0 0c-6.92.61-10.71-.57-10.5-10.5m10.5 10.5c-4.43 2.64-10.2-6.69-10.5-10.5m0 0c1.1-3.49 1.52-8.33 0-21m0 21c.03-4.25 1.63-11.81 0-21m0 0c.04-7.3-.04-11.46 10.5-10.5m-10.5 10.5c1.29-11.55 7.55-14.16 10.5-10.5"/><text x="148.5" y="26" fill="#364fc7" font-family="Helvetica, Segoe UI Emoji" font-size="28" style="white-space:pre" text-anchor="middle" transform="translate(1260.24 567.668)">change_proposal_state</text><path fill="none" stroke="#364fc7" stroke-linecap="round" stroke-width="2" d="M1327.98 480.955c42.05.83 87.77-3.75 161 0m-161 0c32.5.96 64.36-.88 161 0m0 0c8.17-1.78 7.87 4.33 10.5 10.5m-10.5-10.5c8.14 2.4 10.17-.06 10.5 10.5m0 0c1.02 5.13-1.14 12.52 0 21m0-21c-1.47 8.94 1.39 14.58 0 21m0 0c-1.78 9.18-1.71 13.42-10.5 10.5m10.5-10.5c-.11 3.59-6.5 8.85-10.5 10.5m0 0c-67.59.39-126.06-4.6-161 0m161 0c-37.74-.95-74.17 1.57-161 0m0 0c-7.78-1.48-13.77-6.4-10.5-10.5m10.5 10.5c-10.51 1.73-14.71-5.36-10.5-10.5m0 0c-.98-6.78-4.01-14.4 0-21m0 21c.2-5.45-1.41-9.58 0-21m0 0c-1.58-9.6.94-11.72 10.5-10.5m-10.5 10.5c4.47-10.85-.68-10.79 10.5-10.5"/><text x="86" y="26" fill="#364fc7" font-family="Helvetica, Segoe UI Emoji" font-size="28" style="white-space:pre" text-anchor="middle" transform="translate(1322.48 485.955)">proposal_list</text><path fill="none" stroke="#364fc7" stroke-linecap="round" stroke-width="2" d="M1328.24 403.312c60.28-.68 128.14-2.92 161 0m-161 0c34.82 1.18 70.24.56 161 0m0 0c5.15-3.7 11.26 5.93 10.5 10.5m-10.5-10.5c7.02.87 10.94 2.74 10.5 10.5m0 0c.99 7.27-1.54 16.35 0 21m0-21c-1.3 4.97 1.46 11.72 0 21m0 0c-.53 7.35-1.93 11.8-10.5 10.5m10.5-10.5c-3.55 5.12-5.72 9.63-10.5 10.5m0 0c-50.1 4.43-96.81 5.55-161 0m161 0c-41.43-4.96-84.76-4.06-161 0m0 0c-8.26 2.57-11.15-4.34-10.5-10.5m10.5 10.5c-8.74.38-7.81 1.01-10.5-10.5m0 0c-.52-1.57 1.13-12.46 0-21m0 21c-.84-6.39-1.67-8.88 0-21m0 0c-.76-8.38 3.09-11.3 10.5-10.5m-10.5 10.5c-3.48-6 4.27-12.68 10.5-10.5"/><text x="86" y="26" fill="#364fc7" font-family="Helvetica, Segoe UI Emoji" font-size="28" style="white-space:pre" text-anchor="middle" transform="translate(1322.74 408.312)">get_proposal</text><path fill="none" stroke="#862e9c" stroke-linecap="round" stroke-width="2" d="M2016.481 35.897c158.32 3.27 320.05 1.38 504.1 0m-504.1 0c198.31-4.54 395.93-4.14 504.1 0m0 0c115.66-3.48 171.8 55.4 174.42 174.42m-174.42-174.42c112.2-1.4 175.9 58.63 174.42 174.42m0 0c-3.14 135.92-1.96 279.46 0 348.83m0-348.83c-.3 113.54 1.22 225.51 0 348.83m0 0c-.27 113.17-59.15 176.77-174.42 174.42m174.42-174.42c-3.07 113.53-55.23 177.45-174.42 174.42m0 0c-127.99-2.89-256.22-3.86-504.1 0m504.1 0c-158.6-2.58-315.49-1.87-504.1 0m0 0c-118.44-2.49-172.58-58.59-174.42-174.42m174.42 174.42c-120.17-.06-171.47-60.65-174.42-174.42m0 0c-3.91-75.09-2.1-148.65 0-348.83m0 348.83c2.89-82.2 2.82-162.49 0-348.83m0 0c-2.87-115.87 56.72-171.02 174.42-174.42m-174.42 174.42c.82-115.87 55.87-174.39 174.42-174.42"/><text x="93" y="26" fill="#5f3dc4" font-family="Helvetica, Segoe UI Emoji" font-size="28" style="white-space:pre" text-anchor="middle" transform="translate(2148.827 65.689)">NNSDAO SDK</text><text x="322.5" y="26" fill="#c92a2a" font-family="Helvetica, Segoe UI Emoji" font-size="28" style="white-space:pre" text-anchor="middle" transform="translate(1932.445 134.706)">NNSDAO SDK is realized based on DAOBasic SDK</text><path fill="none" stroke="#364fc7" stroke-linecap="round" stroke-width="2" d="M1966.536 243.499c31.18 3.34 59.42 3.42 98.4 0m-98.4 0c32.18.23 66.22.09 98.4 0m0 0c6.47.73 6.73 4.73 10.5 10.5m-10.5-10.5c4.97 2.74 13.92 6.16 10.5 10.5m0 0c-1.27 4.72.45 11.15 0 21m0-21c-1.01 6.75.95 11.6 0 21m0 0c1.8 5.69-3.88 7.39-10.5 10.5m10.5-10.5c4.31 6.5-4.87 8.12-10.5 10.5m0 0c-19.26 1.35-37.22-1.67-98.4 0m98.4 0c-29.75-.22-61.19.31-98.4 0m0 0c-3.77.97-6.51-1.21-10.5-10.5m10.5 10.5c-7.96-.46-11.64-.37-10.5-10.5m0 0c-1.52-3.72.82-8.87 0-21m0 21c1.57-5.49.83-11.41 0-21m0 0c.44-8.7.53-7.1 10.5-10.5m-10.5 10.5c3.08-6.78 7.86-7.48 10.5-10.5"/><text x="54.5" y="26" fill="#364fc7" font-family="Helvetica, Segoe UI Emoji" font-size="28" style="white-space:pre" text-anchor="middle" transform="translate(1961.036 248.499)">join</text><path fill="none" stroke="#364fc7" stroke-linecap="round" stroke-width="2" d="M1965.9 318.334c27.52 2.72 60.79-.7 98.4 0m-98.4 0c31.92 2.28 64.39-.3 98.4 0m0 0c7.39 1.71 9.94 2.5 10.5 10.5m-10.5-10.5c9.14-2.72 9.05 3.09 10.5 10.5m0 0c-3.07 3.44-4.04 14.05 0 21m0-21c-2.06 7.71-.66 11.8 0 21m0 0c-1.67 3.86-.89 7.79-10.5 10.5m10.5-10.5c-.17 10.28-4.31 12.42-10.5 10.5m0 0c-33.38-1.36-68.83-1-98.4 0m98.4 0c-31.27-.58-63.58-1.66-98.4 0m0 0c-9.53 3.42-6.8-.43-10.5-10.5m10.5 10.5c-6.39 2.68-12.99-2.43-10.5-10.5m0 0c-.71-9.26 3.16-12.3 0-21m0 21c1.37-6.82.95-14.31 0-21m0 0c-3.23-4.63 3.19-8.96 10.5-10.5m-10.5 10.5c-1.85-4.7 5.67-9.8 10.5-10.5"/><text x="54.5" y="26" fill="#364fc7" font-family="Helvetica, Segoe UI Emoji" font-size="28" style="white-space:pre" text-anchor="middle" transform="translate(1960.4 323.334)">quit</text><path fill="none" stroke="#364fc7" stroke-linecap="round" stroke-width="2" d="M1958.734 395.812c36.28 5.56 68.79 2.4 147.5 0m-147.5 0c53.28-.71 104.12-1.04 147.5 0m0 0c7.67 3.16 16.49 6.7 15.25 15.25m-15.25-15.25c5.66.05 17.46 5.83 15.25 15.25m0 0c2.36 9.65 1.53 18.32 0 30.5m0-30.5c1.33 10.69.47 20.49 0 30.5m0 0c1.98 12.35-2.48 16.16-15.25 15.25m15.25-15.25c-1.31 14.13-6.48 10.78-15.25 15.25m0 0c-44.75-1.89-89.5.98-147.5 0m147.5 0c-31.55.8-64.8.3-147.5 0m0 0c-6.72-1.58-15.26-8.91-15.25-15.25m15.25 15.25c-7.01 2.63-17.11-8.91-15.25-15.25m0 0c-4.26-10.74-.69-15.28 0-30.5m0 30.5c.86-8.23.42-19.6 0-30.5m0 0c-3.68-9.77 8.92-17.08 15.25-15.25m-15.25 15.25c1.93-7.82 7-11.74 15.25-15.25"/><text x="84" y="26" fill="#364fc7" font-family="Helvetica, Segoe UI Emoji" font-size="28" style="white-space:pre" text-anchor="middle" transform="translate(1948.484 410.312)">member_list</text><path fill="none" stroke="#364fc7" stroke-linecap="round" stroke-width="2" d="M2439.574 280.28c22.96.44 44.61-5.69 119.01 0m-119.01 0c26.44-.33 55.71-1.69 119.01 0m0 0c5.57 2.14 8.88 5.78 10.5 10.5m-10.5-10.5c11.6 2.42 10.45 4.49 10.5 10.5m0 0c-.59 5.32-2.92 14.73 0 21m0-21c.85 8.54-.19 14.12 0 21m0 0c.49 7.86-3.21 7.71-10.5 10.5m10.5-10.5c-2.49 4.19-5.47 6.22-10.5 10.5m0 0c-45.48-1.84-88.59-1.27-119.01 0m119.01 0c-41.18 2.13-77.84 1.3-119.01 0m0 0c-9.99-3.95-10.25-1.26-10.5-10.5m10.5 10.5c-3.09 4.34-8.53-7.31-10.5-10.5m0 0c-.64-8.34 3.2-15.68 0-21m0 21c-1.27-5.08-.2-13.47 0-21m0 0c2.88-5.33 3.27-12.17 10.5-10.5m-10.5 10.5c1.62-6.72 6.59-6.39 10.5-10.5"/><text x="65" y="26" fill="#364fc7" font-family="Helvetica, Segoe UI Emoji" font-size="28" style="white-space:pre" text-anchor="middle" transform="translate(2434.074 285.28)">proposal</text><path fill="none" stroke="#364fc7" stroke-linecap="round" stroke-width="2" d="M2439.083 208.515c43.1-5.03 91.67-3.12 119.01 0m-119.01 0c41.77-1.56 84.47-.17 119.01 0m0 0c5.38 2.28 14.5 5.61 10.5 10.5m-10.5-10.5c6.95.99 13.51.28 10.5 10.5m0 0c-2.66 6.56 2.11 11.93 0 21m0-21c.3 7.32.48 16.53 0 21m0 0c.29 4.21-5.66 8.05-10.5 10.5m10.5-10.5c-1.97 2.72.07 8.98-10.5 10.5m0 0c-33.22-1.99-67.81 2.13-119.01 0m119.01 0c-38.55 2.21-80.34-.33-119.01 0m0 0c-6.75 2.24-7.1.28-10.5-10.5m10.5 10.5c-5.03-3.81-11.35-4.18-10.5-10.5m0 0c3.22-9.36-.28-10.43 0-21m0 21c.11-8.56 1.69-13.81 0-21m0 0c-.23-8.67 4.91-10.26 10.5-10.5m-10.5 10.5c3.09-2.89 7.84-12.35 10.5-10.5"/><text x="65" y="26" fill="#364fc7" font-family="Helvetica, Segoe UI Emoji" font-size="28" style="white-space:pre" text-anchor="middle" transform="translate(2433.583 213.515)">vote</text><path fill="none" stroke="#364fc7" stroke-linecap="round" stroke-width="2" d="M2352.855 524.927c103.34 2.55 212.22.92 286 0m-286 0c100.2 1.49 200.88 1.54 286 0m0 0c11 2.11 10.45 4.36 10.5 10.5m-10.5-10.5c10.01-3.22 12.42 3.16 10.5 10.5m0 0c1.86 2.64 3.06 12.34 0 21m0-21c.26 7.91.16 13.56 0 21m0 0c-2.16 4.55-5.21 6.78-10.5 10.5m10.5-10.5c3.57 5.48-3.96 9.89-10.5 10.5m0 0c-73.44 1.21-147.8-3.88-286 0m286 0c-106.74-.28-211.13 2.06-286 0m0 0c-3.6 3.78-8.79-6.81-10.5-10.5m10.5 10.5c-7.85-.68-12.26-4.31-10.5-10.5m0 0c-.68-4.46 1.62-12.48 0-21m0 21c1.47-6.56-.09-15.62 0-21m0 0c1.41-6.76 6.18-6.93 10.5-10.5m-10.5 10.5c4.34-8.85 3.16-6.81 10.5-10.5"/><text x="148.5" y="26" fill="#364fc7" font-family="Helvetica, Segoe UI Emoji" font-size="28" style="white-space:pre" text-anchor="middle" transform="translate(2347.355 529.927)">change_proposal_state</text><path fill="none" stroke="#364fc7" stroke-linecap="round" stroke-width="2" d="M2418.385 427.902c36.87-2.45 71.2-.44 161 0m-161 0c44.97-.58 93.57-.67 161 0m0 0c6.95.86 13.11.7 10.5 10.5m-10.5-10.5c8.92-.34 7.79.48 10.5 10.5m0 0c3.56 8.19 2.47 12.08 0 21m0-21c.2 4.14-1.03 9.85 0 21m0 0c-1.71 3.28-.39 9.17-10.5 10.5m10.5-10.5c-.46 6.39-5.34 11.99-10.5 10.5m0 0c-42.88-1.16-85.5 4.22-161 0m161 0c-52.68-2.06-103.92-1.29-161 0m0 0c-5.29-3.31-11.24-4.09-10.5-10.5m10.5 10.5c-8.76-.81-13.29.11-10.5-10.5m0 0c1.98-6.7 2.12-8.83 0-21m0 21c-.42-5.83.4-9.88 0-21m0 0c2.68-3.43 7.27-12.11 10.5-10.5m-10.5 10.5c-.34-3.31 5.6-6.54 10.5-10.5"/><text x="86" y="26" fill="#364fc7" font-family="Helvetica, Segoe UI Emoji" font-size="28" style="white-space:pre" text-anchor="middle" transform="translate(2412.885 432.902)">proposal_list</text><path fill="none" stroke="#364fc7" stroke-linecap="round" stroke-width="2" d="M2419.69 350.541c44.32 1.29 83.84 1.51 161 0m-161 0c58.91-.78 113.81-1.4 161 0m0 0c9.61-2.8 12.17 3.2 10.5 10.5m-10.5-10.5c4.29-3.02 9.8 5.96 10.5 10.5m0 0c2.59 5.15-1.1 10.54 0 21m0-21c-1.05 5.53-.83 11.64 0 21m0 0c3.11 5.67-3.9 9.97-10.5 10.5m10.5-10.5c-1.84 8.49-4.69 11.91-10.5 10.5m0 0c-57.92-1.19-120.27-5.92-161 0m161 0c-30.71 3.69-63.96.15-161 0m0 0c-7.74-.59-12.03-4.2-10.5-10.5m10.5 10.5c-9.79 3.61-14.94-3.9-10.5-10.5m0 0c1.87-6.88-2.68-10.31 0-21m0 21c.73-7.05 1.37-12.56 0-21m0 0c3.77-8.61 3.2-7.29 10.5-10.5m-10.5 10.5c2.1-3.04 7.31-8.26 10.5-10.5"/><text x="86" y="26" fill="#364fc7" font-family="Helvetica, Segoe UI Emoji" font-size="28" style="white-space:pre" text-anchor="middle" transform="translate(2414.19 355.541)">get_proposal</text><path fill="none" stroke="#364fc7" stroke-linecap="round" stroke-width="2" d="M1976.618 226.577c47.49-1.87 90.44 3.45 115.53 0m-115.53 0c31.02 1.06 64.39 2.34 115.53 0m0 0c36.34-2.12 61.39 20.79 57.76 57.76m-57.76-57.76c35.27.69 59.54 17.02 57.76 57.76m0 0c-1.14 56.49-2.75 118.47 0 213.51m0-213.51c-1.74 67.53-.85 137.39 0 213.51m0 0c-.97 35.91-17.11 55.91-57.76 57.76m57.76-57.76c-3.29 42.2-21.36 57.97-57.76 57.76m0 0c-28.53-.36-67.86 5.5-115.53 0m115.53 0c-32 1.27-66.59-.76-115.53 0m0 0c-39.02 2.47-54.98-20.45-57.76-57.76m57.76 57.76c-38.77-.14-60.94-18.75-57.76-57.76m0 0c-1.9-74.35-.8-153.93 0-213.51m0 213.51c1.02-82.76.54-163.7 0-213.51m0 0c-.23-34.52 18.58-54.86 57.76-57.76m-57.76 57.76c.7-40.77 15.23-60.32 57.76-57.76m431.825-43.354c51.48 3.39 103.69-3.64 166.75 0m-166.75 0c36.44.41 74.13 3.39 166.75 0m0 0c54.61-.73 84.99 28.6 83.37 83.38m-83.37-83.38c53.72-3.52 84.41 26.21 83.37 83.38m0 0c-.19 99.24 1.13 198.22 0 265.63m0-265.63c1.88 55.83 1.78 109.42 0 265.63m0 0c-.29 55.26-25.32 84.04-83.37 83.38m83.37-83.38c-1.88 59.95-24.23 82.98-83.37 83.38m0 0c-66.79-.13-123.82-.08-166.75 0m166.75 0c-54.66-2.52-111.63-2.7-166.75 0m0 0c-59.19-3.39-86.92-26.03-83.38-83.38m83.38 83.38c-54.06 1.31-83.02-23.8-83.38-83.38m0 0c-3.05-68.32-.48-133.76 0-265.63m0 265.63c-1.59-96.4-2.07-193.38 0-265.63m0 0c-.25-55.19 28.27-81.47 83.38-83.38m-83.38 83.38c-1.27-58.12 27.11-86.34 83.38-83.38"/><g stroke-linecap="round"><path fill="none" stroke="#364fc7" stroke-dasharray="8 10" stroke-width="2.5" d="M2318.925 369.714c-28.87-.8-141.08-3.72-168.79-5.22"/><path fill="none" stroke="#364fc7" stroke-width="2.5" d="M2180.195 355.074c-10.65 6.86-27.27 9.15-31.38 11.04"/><path fill="none" stroke="#364fc7" stroke-width="2.5" d="M2179.425 375.584c-10.45-1.16-26.76-6.89-30.61-9.47"/></g><path fill="none" stroke="#862e9c" stroke-linecap="round" stroke-width="2" d="M1873.658 955.55c210.08-.13 416.65-2.28 793 0m-793 0c201.1-.38 402.02-.72 793 0m0 0c77.96 3.86 122.67 37.01 119.5 119.5m-119.5-119.5c79.8 1.5 123.11 36.97 119.5 119.5m0 0c-4.3 91.81-3.65 177.2 0 239m0-239c-1.44 59.92-1.33 117.8 0 239m0 0c-3.08 76.14-43.33 122.58-119.5 119.5m119.5-119.5c-.86 75.24-36.62 116.16-119.5 119.5m0 0c-278.68 5.79-557.2 4.16-793 0m793 0c-308.54-1.14-616.4-.35-793 0m0 0c-79.07-1.62-121.45-40.15-119.5-119.5m119.5 119.5c-83.13-3.27-123.94-36.57-119.5-119.5m0 0c-5-45.98-3.88-98.81 0-239m0 239c-2.6-64.49-1.16-132.05 0-239m0 0c3.98-81.55 40.06-115.96 119.5-119.5m-119.5 119.5c-.03-79.23 35.86-122.01 119.5-119.5"/><text x="511" y="33" fill="#862e9c" font-family="Helvetica, Segoe UI Emoji" font-size="36" style="white-space:pre" text-anchor="middle" transform="translate(1759.158 960.55)">DAO Manage</text><path fill="none" stroke="#5f3dc4" stroke-linecap="round" stroke-width="2" d="M1944.55 1062.464c47.03-3.6 94.15-.6 149.41 0m-149.41 0c56.23-.69 116.48-.45 149.41 0m0 0c14.59 2.72 20.65 9.77 17.86 17.85m-17.86-17.85c8.01-.57 15.35 4.05 17.86 17.85m0 0c0 11.98-3.46 16.55 0 35.71m0-35.71c-.42 8.66-.94 13.89 0 35.71m0 0c-.76 14.86-9.11 20.87-17.86 17.86m17.86-17.86c2.09 16.23-4.26 17.73-17.86 17.86m0 0c-39.61.53-76.19.96-149.41 0m149.41 0c-54.02-1.27-110.75-3.01-149.41 0m0 0c-9.38 2.95-18.86-9.75-17.85-17.86m17.85 17.86c-14.55-4.29-16.63-7.67-17.85-17.86m0 0c2.24-8.48-2.12-21.42 0-35.71m0 35.71c-.6-7.76 2.42-14.49 0-35.71m0 0c1.25-13.7 7.63-16.98 17.85-17.85m-17.85 17.85c-3.54-11.85 3.67-19.92 17.85-17.85"/><text x="87.5" y="33" fill="#5f3dc4" font-family="Helvetica, Segoe UI Emoji" font-size="36" style="white-space:pre" text-anchor="middle" transform="translate(1931.7 1077.672)">DAOn</text><path fill="none" stroke="#5f3dc4" stroke-linecap="round" stroke-width="2" d="M2413.786 1066.374c45.75-2.78 82.75 1.53 149.41 0m-149.41 0c42.92 2.35 81.28 2.02 149.41 0m0 0c11.89 3.39 20.7 3.55 17.86 17.85m-17.86-17.85c13.99.08 16.46 1.85 17.86 17.85m0 0c2.35 9.26-.1 20.94 0 35.71m0-35.71c1.36 5.74-.33 12.9 0 35.71m0 0c3.32 10.14-9.2 17.89-17.86 17.86m17.86-17.86c.78 13.29-6.95 14.43-17.86 17.86m0 0c-52.01-3.06-96.2.55-149.41 0m149.41 0c-34.77-.97-68.28-.84-149.41 0m0 0c-15.84-2.92-16.86-5.59-17.85-17.86m17.85 17.86c-10.12-3.83-20.93-8.93-17.85-17.86m0 0c-2.04-10.76.18-20.7 0-35.71m0 35.71c-.04-9.78 2.03-23.26 0-35.71m0 0c-3.23-10.6 8.35-16.39 17.85-17.85m-17.85 17.85c-.06-13.79 3.81-15.53 17.85-17.85"/><text x="87.5" y="33" fill="#5f3dc4" font-family="Helvetica, Segoe UI Emoji" font-size="36" style="white-space:pre" text-anchor="middle" transform="translate(2400.936 1081.583)">DAOn</text><path fill="none" stroke="#1864ab" stroke-linecap="round" stroke-width="2" d="M1850.72 1273.54c28.84 1.53 62.55-1.52 76 0m-76 0c29.51 3.38 59.17.1 76 0m0 0c8.03.3 13.25 3.8 10.5 10.5m-10.5-10.5c4.8 1.5 7.61.86 10.5 10.5m0 0c3.41 5.63 2.28 9.97 0 21m0-21c-.4 6.94-.11 14.03 0 21m0 0c2.85 8.21-5.81 9.93-10.5 10.5m10.5-10.5c-4.37 6.1-7.58 14.63-10.5 10.5m0 0c-27.26-1.02-48.81.94-76 0m76 0c-20.13.02-41.31.85-76 0m0 0c-9.91-.38-9.23-1.11-10.5-10.5m10.5 10.5c-2.75-2.87-14.42-5.69-10.5-10.5m0 0c2.07-6.09-2.34-9.41 0-21m0 21c-.32-6.87.1-13.82 0-21m0 0c.57-9.07 5.29-8.18 10.5-10.5m-10.5 10.5c4.48-10.98 3.22-13.58 10.5-10.5"/><text x="43.5" y="18" fill="#1864ab" font-family="Helvetica, Segoe UI Emoji" font-size="20" style="white-space:pre" text-anchor="middle" transform="translate(1845.22 1283.04)">DAOS</text><path fill="none" stroke="#1864ab" stroke-linecap="round" stroke-width="2" d="M1972.352 1274.047c26.48 4.86 50.12.69 76 0m-76 0c20.75 1.64 43.39 1.15 76 0m0 0c6 .12 8.68 6.06 10.5 10.5m-10.5-10.5c11.5-3.7 14.89 4.41 10.5 10.5m0 0c2.43 3.62.49 6.91 0 21m0-21c-1.71 5.36 1.6 8.12 0 21m0 0c-1.45 9.9-1.44 13.09-10.5 10.5m10.5-10.5c-3.95 2.97-2.58 10.19-10.5 10.5m0 0c-22.46 1.77-46.55.42-76 0m76 0c-23.54-.06-42.13.85-76 0m0 0c-4.22-2.66-8.87-6.93-10.5-10.5m10.5 10.5c-8.22.18-6.92-6.02-10.5-10.5m0 0c-.44-6.77.45-12.1 0-21m0 21c-1.06-7.84 1.75-12.02 0-21m0 0c-3.23-7.19 4.46-10.4 10.5-10.5m-10.5 10.5c1.89-8.04 7.36-7.5 10.5-10.5"/><text x="43.5" y="18" fill="#1864ab" font-family="Helvetica, Segoe UI Emoji" font-size="20" style="white-space:pre" text-anchor="middle" transform="translate(1966.852 1283.547)">DAOS</text><path fill="none" stroke="#1864ab" stroke-linecap="round" stroke-width="2" d="M2100.87 1276.486c20.93.08 39.66.05 76 0m-76 0c24.05.88 47.57-1.24 76 0m0 0c8.63-3.43 9.44 3.66 10.5 10.5m-10.5-10.5c10.58-2.52 11.6.71 10.5 10.5m0 0c.12 7.92.2 14.95 0 21m0-21c1.8 7.1-1.79 12.38 0 21m0 0c.96 7.1-1.85 9.6-10.5 10.5m10.5-10.5c3.86 10-2.87 9.67-10.5 10.5m0 0c-13.55 4.35-34.11-2.04-76 0m76 0c-16.85-1.73-34.56-2-76 0m0 0c-10.69-2.62-12.56-4.76-10.5-10.5m10.5 10.5c-7.79 1.46-9.32-3.82-10.5-10.5m0 0c-2.68-6.12 3.87-15.25 0-21m0 21c-1.76-6.23-1.16-11.92 0-21m0 0c3.59-5.36 6.76-11.44 10.5-10.5m-10.5 10.5c-2.94-10.43 2.76-12.97 10.5-10.5"/><text x="43.5" y="18" fill="#1864ab" font-family="Helvetica, Segoe UI Emoji" font-size="20" style="white-space:pre" text-anchor="middle" transform="translate(2095.37 1285.986)">DAOS</text><path fill="none" stroke="#1864ab" stroke-linecap="round" stroke-width="2" d="M2301.535 1280.415c27.55 3.13 56.12.65 76 0m-76 0c16.15-.81 33.02 1.61 76 0m0 0c6.61-1.64 14.26-.18 10.5 10.5m-10.5-10.5c7.87 4.55 12.31 4.73 10.5 10.5m0 0c.17 5.05-.8 17.86 0 21m0-21c.7 6.34-.58 14.03 0 21m0 0c-.95 5.99-6.73 10.41-10.5 10.5m10.5-10.5c-4.47 10.45-.45 11.87-10.5 10.5m0 0c-14 1.51-34.89-2.27-76 0m76 0c-25.93.25-46.97-.4-76 0m0 0c-9.64-1.39-7.43-7.33-10.5-10.5m10.5 10.5c-7.74-2.94-6-4.65-10.5-10.5m0 0c-2.27-5.29-3.63-8.51 0-21m0 21c-1.01-8.32-.8-15.07 0-21m0 0c-.39-5.18-.06-11.77 10.5-10.5m-10.5 10.5c1.74-5.35 1.36-9.74 10.5-10.5"/><text x="43.5" y="18" fill="#1864ab" font-family="Helvetica, Segoe UI Emoji" font-size="20" style="white-space:pre" text-anchor="middle" transform="translate(2296.035 1289.915)">DAOS</text><path fill="none" stroke="#1864ab" stroke-linecap="round" stroke-width="2" d="M2440.687 1282.324c15.3-1.4 38.56.76 76 0m-76 0c20.49-1.16 44.64.66 76 0m0 0c3.94 3.72 7.75.46 10.5 10.5m-10.5-10.5c11.05 1.9 7.27 1.93 10.5 10.5m0 0c-2.94 8.13.59 16.55 0 21m0-21c.56 5.39-1.21 8.56 0 21m0 0c-3.42 9.49-.04 8.49-10.5 10.5m10.5-10.5c3.71 9.04-4.73 6.86-10.5 10.5m0 0c-25.87-.76-52.06-1.75-76 0m76 0c-19.14.95-43.14-.29-76 0m0 0c-7.37.46-10.29-.82-10.5-10.5m10.5 10.5c-4.93 2.4-12.17-5.48-10.5-10.5m0 0c-1.16-4.63-2.21-10.98 0-21m0 21c-1.22-7.9 1.77-17.36 0-21m0 0c-1.92-5.15 2.71-13.21 10.5-10.5m-10.5 10.5c-.96-4.32 4.33-10.8 10.5-10.5"/><text x="43.5" y="18" fill="#1864ab" font-family="Helvetica, Segoe UI Emoji" font-size="20" style="white-space:pre" text-anchor="middle" transform="translate(2435.187 1291.824)">DAOS</text><path fill="none" stroke="#1864ab" stroke-linecap="round" stroke-width="2" d="M2586.747 1277.993c17.3 3.53 30.13-.11 76 0m-76 0c15.63-2.41 29.42-1.54 76 0m0 0c3.09-3.04 12.31 4.25 10.5 10.5m-10.5-10.5c9.8 3.16 10.67-.19 10.5 10.5m0 0c-1.85 7.03-.87 10.45 0 21m0-21c-.04 7.64 1.38 11.25 0 21m0 0c1.45 4.58-.45 13.73-10.5 10.5m10.5-10.5c2.35 6.54.79 11.84-10.5 10.5m0 0c-20.08-3.41-38.8-3.03-76 0m76 0c-19.02-2.35-37.36.66-76 0m0 0c-6.23-.5-7.28-6.13-10.5-10.5m10.5 10.5c-7.85-2.28-11.87.02-10.5-10.5m0 0c1.84-7.01-.44-11.79 0-21m0 21c-.78-3.54 2.07-12.15 0-21m0 0c-2.02-10.77 6.98-13.3 10.5-10.5m-10.5 10.5c1.14-6.95 1.8-10.47 10.5-10.5"/><text x="43.5" y="18" fill="#1864ab" font-family="Helvetica, Segoe UI Emoji" font-size="20" style="white-space:pre" text-anchor="middle" transform="translate(2581.247 1287.493)">DAOS</text><g stroke-linecap="round"><path fill="none" stroke="#862e9c" stroke-width="2" d="M2017.581 1134.042c-22.06 24.29-109.38 123.22-131.28 147.28m128.64-150.2c-21.35 23.45-101.12 121.33-123.02 146.32"/><path fill="none" stroke="#862e9c" stroke-width="2" d="M1901.051 1247.232c.29 10.96-7.94 27.34-11.85 27.27m11.24-26.09c-.5 11.46-5.01 17.82-10.16 28.92"/><path fill="none" stroke="#862e9c" stroke-width="2" d="M1916.741 1260.462c-5.91 5.95-20.28 17.17-27.54 14.04m26.93-12.87c-5.68 7.28-15.23 9.4-25.85 15.7"/></g><g stroke-linecap="round"><path fill="none" stroke="#862e9c" stroke-width="2" d="M2013.32 1132.67c-.59 24.57-6.16 123.46-6.88 147.74m3.9-142.76c.56 23.98 2.09 114.96 1.66 138.95"/><path fill="none" stroke="#862e9c" stroke-width="2" d="M1998.54 1246.2c8.1 9.57 7.34 13.6 10.33 32.08m-7.12-29.52c2.66 7.01 7.49 18.22 10.95 28.51"/><path fill="none" stroke="#862e9c" stroke-width="2" d="M2019.06 1246.17c3.76 9.7-1.33 13.74-10.19 32.11m13.4-29.55c-3.64 6.75-5.12 17.98-9.57 28.54"/></g><g stroke-linecap="round"><path fill="none" stroke="#862e9c" stroke-width="2" d="M2010.001 1135.18c21.83 24.37 111.05 123.73 132.82 147.89m-136.08-142.59c21.52 23.57 113.3 114.89 135.35 138.57"/><path fill="none" stroke="#862e9c" stroke-width="2" d="M2112.791 1269.96c15.11 1.68 21.07 9.8 27.3 11.01m-26.4-13.35c9.34 1.83 16.2 6.22 28.47 13.16"/><path fill="none" stroke="#862e9c" stroke-width="2" d="M2127.511 1255.67c9.57 7.1 9.97 20.61 12.58 25.3m-11.68-27.65c5.81 5.41 8.88 13.5 13.75 27.46"/></g><g stroke-linecap="round"><path fill="none" stroke="#862e9c" stroke-width="2" d="M2479.615 1140.542c-20.93 23.25-105.05 114.42-126.3 137.35m130.97-139.13c-21.04 23.61-110.15 118.04-132.46 141.62"/><path fill="none" stroke="#862e9c" stroke-width="2" d="M2365.515 1254.812c-7.84 4.84-10.34 13.52-14.89 24.38m13.09-27.72c-2.88 6.76-7 15.64-11.57 29.08"/><path fill="none" stroke="#862e9c" stroke-width="2" d="M2380.445 1268.902c-11.35 1.34-17.45 6.63-29.82 10.29m28.01-13.63c-6.84 2.86-14.95 7.98-26.49 14.99"/></g><g stroke-linecap="round"><path fill="none" stroke="#862e9c" stroke-width="2" d="M2486.448 1141.438c-.7 23.04-1.63 113.94-1.56 137.58m-2.07-139.63c-1.28 23.3-.72 118.81-.18 142.06m-9.51-28.09c-.17 13.55 9.98 22.94 5.71 31.48m-4.92-30.12c.04 9.06 3.18 16.13 7.54 25.55"/><path fill="none" stroke="#862e9c" stroke-width="2" d="M2493.648 1253.108c-8.02 13.59-5.72 23.08-14.81 31.73m15.6-30.37c-6.27 9.46-9.43 16.61-12.98 25.8"/></g><g stroke-linecap="round"><path fill="none" stroke="#862e9c" stroke-width="2" d="M2486.47 1141.106c19.63 22.1 100.58 107.11 120.06 128.28m-116.22-129.38c19.4 22.65 94.88 110.79 114.69 132.44"/><path fill="none" stroke="#862e9c" stroke-width="2" d="M2582.26 1259.936c2.42.11 8.24 6.09 21.05 9.44m-25.77-10.14c9.71 5.4 21.25 11.22 26.28 14.91"/><path fill="none" stroke="#862e9c" stroke-width="2" d="M2597.66 1246.366c-2.25 3.8-.93 13.73 5.65 23.01m-10.37-23.7c3.65 10.49 9.37 21.42 10.88 28.47"/></g><text x="30.5" y="33" fill="#862e9c" font-family="Helvetica, Segoe UI Emoji" font-size="36" style="white-space:pre" text-anchor="middle" transform="translate(2198.5 1272.382)">......</text><text x="30.5" y="33" fill="#862e9c" font-family="Helvetica, Segoe UI Emoji" font-size="36" style="white-space:pre" text-anchor="middle" transform="translate(2695.452 1272.605)">......</text><text x="30.5" y="33" fill="#862e9c" font-family="Helvetica, Segoe UI Emoji" font-size="36" style="white-space:pre" text-anchor="middle" transform="translate(2655.804 1082.499)">......</text><text y="18" font-family="Virgil, Segoe UI Emoji" font-size="20" style="white-space:pre" transform="translate(1777.132 1952.196)">User</text><g fill-rule="evenodd" stroke-linecap="round"><path fill="none" stroke="#ced4da" d="M1787.815 1903.903s0 0 0 0m0 0s0 0 0 0m-6.43 19.59c4.86-5.6 9.72-11.19 19.68-22.64m-19.68 22.64c5.93-6.83 11.87-13.65 19.68-22.64m-26.11 42.22c9.38-10.78 18.76-21.57 34.78-40m-34.78 40c9.68-11.13 19.36-22.27 34.78-40m-24.15 39.97 29.53-33.96m-29.53 33.96c6.92-7.96 13.84-15.92 29.53-33.96m-18.9 33.93c5.17-5.95 10.34-11.89 24.94-28.68m-24.94 28.68c9.44-10.86 18.88-21.72 24.94-28.68m-17.59 32.41c5.97-6.86 11.93-13.72 21.65-24.9m-21.65 24.9c8.6-9.89 17.2-19.78 21.65-24.9m-9.05 22.61c4.14-4.76 8.28-9.52 13.12-15.1m-13.12 15.1c4.8-5.53 9.6-11.05 13.12-15.1m-54.94 13.19s0 0 0 0m0 0s0 0 0 0m12.04-.13c-2.66-2.32-5.32-4.63-10.57-9.19m10.57 9.19c-2.93-2.55-5.86-5.1-10.57-9.19m23.37 9.71c-7.37-6.4-14.73-12.8-21.89-19.03m21.89 19.03c-7.26-6.31-14.52-12.62-21.89-19.03m27.13 12.99c-8.02-6.98-16.05-13.96-23.39-20.34m23.39 20.34c-8.95-7.78-17.91-15.57-23.39-20.34m39.21 23.49c-13.66-11.88-27.33-23.75-36.23-31.49m36.23 31.49c-12.36-10.74-24.71-21.48-36.23-31.49m42.99 26.76c-14.52-12.61-29.03-25.23-37.74-32.8m37.74 32.8c-14.4-12.51-28.8-25.03-37.74-32.8m36.19 20.86c-7.28-6.33-14.57-12.67-30.19-26.24m30.19 26.24-30.19-26.24"/><path fill="none" stroke="#000" stroke-width="2" d="M1774.345 1942.543c.92-4.85 1.58-21.76 5.52-29.07 3.94-7.31 12.09-14.27 18.13-14.8 6.04-.53 13.86 4.82 18.13 11.63 4.27 6.81 14.45 23.85 7.49 29.22-6.96 5.38-41.06 2.52-49.27 3.02m0 0c.92-4.85 1.58-21.76 5.52-29.07 3.94-7.31 12.09-14.27 18.13-14.8 6.04-.53 13.86 4.82 18.13 11.63 4.27 6.81 14.45 23.85 7.49 29.22-6.96 5.38-41.06 2.52-49.27 3.02"/></g><g stroke-linecap="round"><path fill="none" stroke="#ced4da" d="M1789.779 1879.762s0 0 0 0m0 0s0 0 0 0m-.53 12.8c3.57-4.1 7.13-8.2 13.78-15.85m-13.78 15.85c3.41-3.92 6.81-7.83 13.78-15.85m-7.74 21.1c4.55-5.24 9.1-10.47 15.09-17.36m-15.09 17.36a19889 19889 0 0 1 15.09-17.36m-19.22 14.77s0 0 0 0m0 0s0 0 0 0m13.55 1.18c-3.89-3.39-7.78-6.77-16.6-14.44m16.6 14.44c-3.44-2.99-6.88-5.98-16.6-14.44m23.36 9.71a85239.8 85239.8 0 0 1-17.36-15.09m17.36 15.09c-4.78-4.16-9.56-8.31-17.36-15.09"/><path fill="none" stroke="#000" stroke-width="2" d="M1812.029 1886.892c0 .64-.07 1.28-.2 1.91-.12.63-.32 1.26-.56 1.86-.25.6-.57 1.19-.93 1.74-.37.56-.8 1.09-1.26 1.58-.47.49-1 .95-1.56 1.36-.56.41-1.17.78-1.8 1.1-.63.32-1.31.6-1.99.82-.69.22-1.41.38-2.13.5-.72.11-1.46.16-2.19.16s-1.47-.05-2.19-.16c-.72-.12-1.43-.28-2.12-.5-.69-.22-1.36-.5-1.99-.82-.64-.32-1.25-.69-1.8-1.1-.56-.41-1.09-.87-1.56-1.36-.47-.49-.9-1.02-1.26-1.58-.37-.55-.68-1.14-.93-1.74-.25-.6-.44-1.23-.57-1.86-.13-.63-.19-1.27-.19-1.91 0-.64.06-1.29.19-1.92.13-.63.32-1.26.57-1.86.25-.6.56-1.19.93-1.74.36-.56.79-1.09 1.26-1.58s1-.95 1.56-1.36c.55-.41 1.16-.78 1.8-1.1.63-.32 1.3-.6 1.99-.81.69-.22 1.4-.39 2.12-.5.72-.11 1.46-.17 2.19-.17s1.47.06 2.19.17c.72.11 1.44.28 2.13.5a13.113 13.113 0 0 1 3.79 1.91c.56.41 1.09.87 1.56 1.36.46.49.89 1.02 1.26 1.58.36.55.68 1.14.93 1.74.24.6.44 1.23.56 1.86.13.63.16 1.6.2 1.92.03.32.03-.32 0 0"/></g><path fill="none" stroke="#1864ab" stroke-dasharray="8 10" stroke-linecap="round" stroke-width="2.5" d="M1920.51 1878.37c45.81-.75 92.92-5.35 209.76 0m0 0c11.27-1.04 18.56 4.54 19.75 19.75m0 0c-1.06 15.62 4.51 33.33 0 39.5m0 0c1.41 14.99-6.71 19.66-19.75 19.75m0 0c-72.26-4.64-135.53.84-209.76 0m0 0c-13.63-.69-16.19-8.99-19.75-19.75m0 0c-3.54-8.75-2.29-18.55 0-39.5m0 0c-3.68-10.24 3.53-17.24 19.75-19.75"/><text x="119.5" y="33" fill="#1864ab" font-family="Helvetica, Segoe UI Emoji" font-size="36" style="white-space:pre" text-anchor="middle" transform="translate(1905.76 1897.368)">DAO Manage</text><path fill="none" stroke="#1864ab" stroke-linecap="round" stroke-width="2" d="M2231.555 1876.99c82.03-.37 167.67 1.43 251.48 0m-251.48 0c54.78-3.22 111.98-3.58 251.48 0m0 0c17.73-2.83 17.15 5.09 20.76 20.76m-20.76-20.76c16.31 3.91 16.81 4.01 20.76 20.76m0 0c.8 7.86.68 23.11 0 41.53m0-41.53c-1.35 13.26-1.53 26.05 0 41.53m0 0c2.63 10.75-5.47 18.21-20.76 20.77m20.76-20.77c2.04 10.37-9.09 21.63-20.76 20.77m0 0c-79.47 4.21-161.33 1.66-251.48 0m251.48 0c-94.95-2.1-191.52-2.7-251.48 0m0 0c-15.36.17-16.91-7.57-20.76-20.77m20.76 20.77c-13.08 4.42-25.3-9.19-20.76-20.77m0 0c-2.17-14.89-2.95-30.65 0-41.53m0 41.53c1.27-13.05 2.34-29.03 0-41.53m0 0c-.9-13.11 7.4-18.57 20.76-20.76m-20.76 20.76c1.67-11.18 6.08-17.18 20.76-20.76"/><text x="141.5" y="33" fill="#1864ab" font-family="Helvetica, Segoe UI Emoji" font-size="36" style="white-space:pre" text-anchor="middle" transform="translate(2215.795 1898.02)">Create DAOs</text><path fill="none" stroke="#1864ab" stroke-linecap="round" stroke-width="2" d="M2622.727 1757.936c54.34-.23 111.03-4.47 169.36 0m-169.36 0c38.45 1.14 73.78-1.02 169.36 0m0 0c13.58 2.08 23.21 5.57 21.97 21.98m-21.97-21.98c16.34 3.22 23.16 3.25 21.97 21.98m0 0c3.54 14.24 3.52 32.27 0 43.96m0-43.96c1.9 16.28 2.04 27.69 0 43.96m0 0c-1.3 18.23-7.82 20.13-21.97 21.98m21.97-21.98c-.84 15.17-3.27 21.18-21.97 21.98m0 0c-52.11 2.23-100.59 3.75-169.36 0m169.36 0c-64.47-.11-126.64-.03-169.36 0m0 0c-17.99-1.68-25.48-10.76-21.98-21.98m21.98 21.98c-11.93 2.96-23.77-8.71-21.98-21.98m0 0c1.03-17.74 3.2-32.89 0-43.96m0 43.96c1.14-9.92.57-21.07 0-43.96m0 0c3.74-12.3 10.47-18.22 21.98-21.98m-21.98 21.98c-3.2-16.75 11.07-18.35 21.98-21.98"/><text x="101.5" y="33" fill="#1864ab" font-family="Helvetica, Segoe UI Emoji" font-size="36" style="white-space:pre" text-anchor="middle" transform="translate(2605.747 1781.395)">DAO1</text><text y="18" font-family="Virgil, Segoe UI Emoji" font-size="20" style="white-space:pre" transform="translate(2957.757 1715.692)">Users</text><g stroke-linecap="round"><path fill="none" stroke="#ced4da" d="M3000.39 1651.662s0 0 0 0m0 0s0 0 0 0m.79 11.28c2.77-3.18 5.53-6.37 11.15-12.83m-11.15 12.83c2.31-2.65 4.62-5.31 11.15-12.83m-3.8 16.57c2.43-2.8 4.87-5.6 9.18-10.56m-9.18 10.56c1.96-2.26 3.92-4.51 9.18-10.56m-15.74 7.78s0 0 0 0m0 0s0 0 0 0m12.04-.13-13.58-11.81m13.58 11.81-13.58-11.81m18.08 5.12c-3.32-2.89-6.64-5.78-10.57-9.19m10.57 9.19c-3.46-3.01-6.92-6.02-10.57-9.19"/><path fill="none" stroke="#000" stroke-width="2" d="M3017.95 1657.072a7.688 7.688 0 0 1-.6 2.96c-.19.47-.44.93-.72 1.36-.29.43-.62.85-.99 1.23-.37.39-.78.75-1.22 1.07-.44.32-.91.61-1.41.86-.49.25-1.02.47-1.56.64-.53.17-1.1.3-1.66.39-.56.09-1.14.13-1.71.13-.58 0-1.16-.04-1.72-.13s-1.13-.22-1.66-.39c-.54-.17-1.07-.39-1.56-.64-.5-.25-.97-.54-1.41-.86-.44-.32-.85-.68-1.22-1.07-.37-.38-.7-.8-.99-1.23-.28-.43-.53-.89-.72-1.36a7.688 7.688 0 0 1-.6-2.96 7.556 7.556 0 0 1 .6-2.95c.19-.47.44-.94.72-1.37.29-.43.62-.85.99-1.23.37-.39.78-.75 1.22-1.07.44-.32.91-.61 1.41-.86.49-.25 1.02-.47 1.56-.64.53-.17 1.1-.3 1.66-.39.56-.09 1.14-.13 1.72-.13.57 0 1.15.04 1.71.13s1.13.22 1.66.39c.54.17 1.07.39 1.56.64.5.25.97.54 1.41.86.44.32.85.68 1.22 1.07.37.38.7.8.99 1.23.28.43.53.9.72 1.37.2.47.35.96.45 1.45.1.49.13 1.25.15 1.5.03.25.03-.25 0 0"/></g><g stroke-linecap="round"><path fill="none" stroke="#ced4da" d="M2957.206 1652.245s0 0 0 0m0 0s0 0 0 0m.79 11.28c2.57-2.95 5.14-5.91 11.15-12.83m-11.15 12.83 11.15-12.83m-3.8 16.57c2.22-2.55 4.44-5.11 9.18-10.56m-9.18 10.56c3.62-4.16 7.23-8.32 9.18-10.56m-15.74 7.78s0 0 0 0m0 0s0 0 0 0m12.04-.13c-3.94-3.43-7.88-6.85-13.58-11.81m13.58 11.81c-4.64-4.04-9.28-8.07-13.58-11.81m18.08 5.12c-3.7-3.22-7.39-6.43-10.57-9.19m10.57 9.19c-2.25-1.96-4.51-3.92-10.57-9.19"/><path fill="none" stroke="#000" stroke-width="2" d="M2974.766 1657.655a7.688 7.688 0 0 1-.6 2.96c-.19.47-.44.93-.72 1.36-.29.43-.62.85-.99 1.23-.37.39-.78.75-1.22 1.07-.44.32-.91.61-1.41.86-.49.25-1.02.47-1.56.64-.53.17-1.1.3-1.66.39-.56.09-1.14.13-1.71.13-.58 0-1.16-.04-1.72-.13s-1.13-.22-1.66-.39c-.54-.17-1.07-.39-1.56-.64-.5-.25-.97-.54-1.41-.86-.44-.32-.85-.68-1.22-1.07-.37-.38-.7-.8-.99-1.23-.28-.43-.53-.89-.72-1.36a7.688 7.688 0 0 1-.6-2.96 7.556 7.556 0 0 1 .6-2.95c.19-.47.44-.94.72-1.37.29-.43.62-.85.99-1.23.37-.39.78-.75 1.22-1.07.44-.32.91-.61 1.41-.86.49-.25 1.02-.47 1.56-.64.53-.17 1.1-.3 1.66-.39.56-.09 1.14-.13 1.72-.13.57 0 1.15.04 1.71.13s1.13.22 1.66.39c.54.17 1.07.39 1.56.64.5.25.97.54 1.41.86.44.32.85.68 1.22 1.07.37.38.7.8.99 1.23.28.43.53.9.72 1.37.2.47.35.96.45 1.45.1.49.13 1.25.15 1.5.03.25.03-.25 0 0"/></g><g fill-rule="evenodd" stroke-linecap="round"><path fill="none" stroke="#ced4da" d="M2977.398 1674.586s0 0 0 0m0 0s0 0 0 0m-5.12 18.08c7.23-8.32 14.46-16.64 18.37-21.13m-18.37 21.13c6.72-7.73 13.44-15.47 18.37-21.13m-22.83 38.45c9.36-10.76 18.72-21.53 29.52-33.96m-29.52 33.96c8.73-10.04 17.45-20.07 29.52-33.96m-18.89 33.93c6.51-7.48 13.01-14.97 24.27-27.93m-24.27 27.93c9.23-10.62 18.46-21.24 24.27-27.93m-13.64 27.89c4.64-5.34 9.29-10.68 17.71-20.37m-17.71 20.37c6.1-7.01 12.2-14.02 17.71-20.37m-6.42 19.59c3.42-3.94 6.84-7.88 11.15-12.83m-11.15 12.83c2.52-2.91 5.05-5.82 11.15-12.83m-46.05 11.64s0 0 0 0m0 0s0 0 0 0m12.04-.13c-2.77-2.41-5.54-4.82-10.57-9.19m10.57 9.19c-3.68-3.21-7.37-6.41-10.57-9.19m22.61 9.05c-7.05-6.13-14.11-12.26-21.13-18.37m21.13 18.37c-5.3-4.61-10.61-9.22-21.13-18.37m31.66 16.93c-10.14-8.82-20.28-17.64-28.68-24.93m28.68 24.93c-6.36-5.53-12.72-11.06-28.68-24.93m37.71 22.17c-6.52-5.66-13.03-11.33-32.46-28.21m32.46 28.21c-11.67-10.14-23.33-20.28-32.46-28.21m31.67 16.92c-6.95-6.03-13.89-12.07-25.66-22.3m25.66 22.3c-9.04-7.85-18.08-15.7-25.66-22.3"/><path fill="none" stroke="#000" stroke-width="2" d="M2965.468 1707.946c.78-4.11 1.34-18.46 4.68-24.67 3.35-6.2 10.26-12.11 15.39-12.56 5.13-.45 11.76 4.09 15.38 9.87 3.62 5.78 12.26 20.24 6.36 24.8-5.91 4.56-34.84 2.13-41.81 2.56m0 0c.78-4.11 1.34-18.46 4.68-24.67 3.35-6.2 10.26-12.11 15.39-12.56 5.13-.45 11.76 4.09 15.38 9.87 3.62 5.78 12.26 20.24 6.36 24.8-5.91 4.56-34.84 2.13-41.81 2.56"/></g><g stroke-linecap="round"><path fill="none" stroke="#ced4da" d="M2978.384 1654.802s0 0 0 0m0 0s0 0 0 0m.13 12.05c3.35-3.86 6.7-7.71 12.46-14.34m-12.46 14.34 12.46-14.34m-5.11 18.07c4.08-4.69 8.16-9.39 11.15-12.83m-11.15 12.83c3.53-4.06 7.07-8.13 11.15-12.83m-17.04 10.33s0 0 0 0m0 0s0 0 0 0m12.8.52c-5.74-4.98-11.48-9.97-15.1-13.12m15.1 13.12c-3.96-3.43-7.92-6.87-15.1-13.12m19.59 6.43-12.07-10.5m12.07 10.5c-3.7-3.22-7.41-6.44-12.07-10.5"/><path fill="none" stroke="#000" stroke-width="2" d="M2997.354 1660.732c0 .55-.05 1.1-.16 1.63-.11.53-.27 1.07-.48 1.58a9.035 9.035 0 0 1-1.86 2.81 10.223 10.223 0 0 1-2.85 2.09c-.53.28-1.11.51-1.69.69-.58.19-1.19.33-1.8.43-.61.09-1.24.14-1.86.14-.62 0-1.25-.05-1.86-.14-.61-.1-1.22-.24-1.8-.43-.58-.18-1.15-.41-1.69-.69-.54-.27-1.05-.58-1.53-.93-.47-.35-.92-.74-1.32-1.16-.39-.41-.76-.86-1.07-1.33a8.73 8.73 0 0 1-.78-1.48 8.24 8.24 0 0 1-.49-1.58 8.83 8.83 0 0 1-.16-1.63c0-.54.06-1.09.16-1.62.11-.54.27-1.07.49-1.58.21-.51.47-1.01.78-1.48.31-.47.68-.92 1.07-1.33.4-.42.85-.81 1.32-1.16.48-.35.99-.66 1.53-.94.54-.27 1.11-.5 1.69-.69.58-.18 1.19-.32 1.8-.42.61-.09 1.24-.14 1.86-.14.62 0 1.25.05 1.86.14.61.1 1.22.24 1.8.42.58.19 1.16.42 1.69.69.54.28 1.06.59 1.53.94.48.35.92.74 1.32 1.16a9.035 9.035 0 0 1 1.86 2.81c.21.51.37 1.04.48 1.58.11.53.14 1.35.16 1.62.03.28.03-.27 0 0"/></g><g fill-rule="evenodd" stroke-linecap="round"><path fill="none" stroke="#ced4da" d="M2994.619 1674.277s0 0 0 0m0 0s0 0 0 0m6.04 5.25c4.69-5.4 9.39-10.8 11.81-13.59m-11.81 13.59c3.5-4.03 7-8.06 11.81-13.59m-5.77 18.84 13.12-15.1m-13.12 15.1c3.63-4.18 7.26-8.36 13.12-15.1m-9.71 23.36c4.95-5.69 9.89-11.38 15.74-18.11m-15.74 18.11c5.15-5.93 10.31-11.86 15.74-18.11m-14.3 28.65c3.69-4.24 7.37-8.48 16.41-18.87m-16.41 18.87c4.69-5.39 9.37-10.77 16.41-18.87m-3.81 16.57 5.25-6.04m-5.25 6.04c1.92-2.21 3.83-4.41 5.25-6.04m-20.35 6.64s0 0 0 0m0 0s0 0 0 0m11.29-.78-9.06-7.88m9.06 7.88c-2.78-2.42-5.56-4.83-9.06-7.88m17.32 4.46c-6.27-5.45-12.54-10.9-30.94-26.9m30.94 26.9c-9.1-7.91-18.2-15.82-30.94-26.9m33.93 18.9c-5.64-4.91-11.28-9.81-27.17-23.62m27.17 23.62c-7.61-6.62-15.22-13.24-27.17-23.62"/><path fill="none" stroke="#000" stroke-width="2" d="M2994.619 1674.277c.86-.93 3.58-4.18 5.17-5.57 1.6-1.4 2.39-2.26 4.38-2.79 1.99-.53 5.44-.53 7.57-.4 2.12.14 3.71.33 5.17 1.2 1.46.86 2.59 2.45 3.58 3.98 1 1.52 1.6 3.25 2.39 5.17.8 1.93 1.66 4.25 2.39 6.37.73 2.12 1.53 4.45 1.99 6.37.47 1.92.8 3.45.8 5.18 0 1.72-.14 3.91-.8 5.17-.66 1.26-1.92 1.79-3.18 2.39-1.26.6-2.59.93-4.38 1.19-1.79.27-4.65.47-6.37.4-1.73-.07-3.25.27-3.98-.8-.73-1.06-.07-4.04-.4-5.57-.33-1.52-.86-2.06-1.59-3.58-.73-1.53-1.66-3.38-2.79-5.57-1.13-2.19-2.32-5.38-3.98-7.57-1.66-2.19-4.97-4.64-5.97-5.57m0 0c.86-.93 3.58-4.18 5.17-5.57 1.6-1.4 2.39-2.26 4.38-2.79 1.99-.53 5.44-.53 7.57-.4 2.12.14 3.71.33 5.17 1.2 1.46.86 2.59 2.45 3.58 3.98 1 1.52 1.6 3.25 2.39 5.17.8 1.93 1.66 4.25 2.39 6.37.73 2.12 1.53 4.45 1.99 6.37.47 1.92.8 3.45.8 5.18 0 1.72-.14 3.91-.8 5.17-.66 1.26-1.92 1.79-3.18 2.39-1.26.6-2.59.93-4.38 1.19-1.79.27-4.65.47-6.37.4-1.73-.07-3.25.27-3.98-.8-.73-1.06-.07-4.04-.4-5.57-.33-1.52-.86-2.06-1.59-3.58-.73-1.53-1.66-3.38-2.79-5.57-1.13-2.19-2.32-5.38-3.98-7.57-1.66-2.19-4.97-4.64-5.97-5.57"/></g><g fill-rule="evenodd" stroke-linecap="round"><path fill="none" stroke="#ced4da" d="M2952.28 1671.585s0 0 0 0m0 0s0 0 0 0m-1.84 14.3c3.7-4.26 7.41-8.52 13.78-15.85m-13.78 15.85c4.2-4.82 8.39-9.65 13.78-15.85m-16.93 31.67c7.81-8.98 15.62-17.96 26.9-30.95m-26.9 30.95c9.2-10.58 18.4-21.16 26.9-30.95m-20.2 35.44c5.05-5.81 10.09-11.61 14.43-16.6m-14.43 16.6c3.07-3.54 6.15-7.08 14.43-16.6m-4.46 17.32c.53-.61 1.06-1.21 1.97-2.26m-1.97 2.26c.48-.55.95-1.1 1.97-2.26m-20.86-4.67s0 0 0 0m0 0s0 0 0 0m18.08 5.11c-5.11-4.44-10.22-8.88-15.85-13.78m15.85 13.78c-4.4-3.82-8.8-7.65-15.85-13.78m22.61 9.06c-8.38-7.29-16.77-14.58-21.13-18.37m21.13 18.37-21.13-18.37m19.58 6.42c-3.84-3.33-7.68-6.67-16.6-14.43m16.6 14.43-16.6-14.43m20.34 7.08c-3.47-3.01-6.94-6.03-15.85-13.77m15.85 13.77c-4.55-3.95-9.09-7.9-15.85-13.77m20.35 7.08c-2.63-2.28-5.25-4.56-12.83-11.15m12.83 11.15c-2.93-2.54-5.85-5.08-12.83-11.15"/><path fill="none" stroke="#000" stroke-width="2" d="M2976.7 1674.265c-.66-.73-2.59-3.18-3.98-4.38-1.39-1.19-2.39-2.25-4.38-2.79-1.99-.53-5.44-.53-7.56-.39-2.13.13-3.72.33-5.18 1.19-1.46.86-2.58 2.46-3.58 3.98-1 1.53-1.59 3.25-2.39 5.18-.79 1.92-1.66 4.24-2.39 6.37-.73 2.12-1.52 4.44-1.99 6.36-.46 1.93-.79 3.45-.79 5.18 0 1.72.13 3.91.79 5.17.67 1.26 1.99 1.66 3.19 2.39 1.19.73 2.25 1.46 3.98 1.99 1.72.53 4.18 1 6.37 1.2 2.19.2 5.5 1.19 6.76 0 1.26-1.2.53-5.38.8-7.17s.46-1.99.8-3.58c.33-1.59.39-3.65 1.19-5.97.8-2.32 2.19-5.51 3.58-7.96 1.4-2.46 3.98-5.64 4.78-6.77m0 0c-.66-.73-2.59-3.18-3.98-4.38-1.39-1.19-2.39-2.25-4.38-2.79-1.99-.53-5.44-.53-7.56-.39-2.13.13-3.72.33-5.18 1.19-1.46.86-2.58 2.46-3.58 3.98-1 1.53-1.59 3.25-2.39 5.18-.79 1.92-1.66 4.24-2.39 6.37-.73 2.12-1.52 4.44-1.99 6.36-.46 1.93-.79 3.45-.79 5.18 0 1.72.13 3.91.79 5.17.67 1.26 1.99 1.66 3.19 2.39 1.19.73 2.25 1.46 3.98 1.99 1.72.53 4.18 1 6.37 1.2 2.19.2 5.5 1.19 6.76 0 1.26-1.2.53-5.38.8-7.17s.46-1.99.8-3.58c.33-1.59.39-3.65 1.19-5.97.8-2.32 2.19-5.51 3.58-7.96 1.4-2.46 3.98-5.64 4.78-6.77"/></g><g stroke-linecap="round"><path fill="none" stroke="#1864ab" stroke-width="2" d="M2941.619 1707.466c-35.57 8.11-178.47 38.49-214.82 46.36m212.69-47.33c-35.93 8.51-179.25 42.19-214.3 50.79"/><path fill="none" stroke="#1864ab" stroke-width="2" d="M2754.139 1742.406c-12.72 1.29-19.91 10.56-29.84 11.91m26.04-12.26c-9.36 4.13-16.46 11.63-25 14.26"/><path fill="none" stroke="#1864ab" stroke-width="2" d="M2758.919 1762.356c-14.39-5.33-23.19-2.76-34.62-8.04m30.82 7.7c-11.2-2.87-19.96-2.33-29.78-5.7"/></g><text x="28.5" y="33" fill="#1864ab" font-family="Helvetica, Segoe UI Emoji" font-size="36" style="white-space:pre" text-anchor="middle" transform="translate(2806.015 1686.072)">join</text><g stroke-linecap="round"><path fill="none" stroke="#1864ab" stroke-width="2" d="M1825.626 1921.007c12.77-.66 65.96-3.96 79.16-4.49m-74.48 1.79c12.17-.22 59.75.65 71.8 1.07m-29.05 8.4c8.84-3.15 20.84-2.76 28.12-7.8m-28.05 8.67c8.4-.86 19.75-5.05 28.23-7.97"/><path fill="none" stroke="#1864ab" stroke-width="2" d="M1873.566 1907.267c8.52 4.17 20.33 11.91 27.61 12.71m-27.54-11.85c8.63 5.45 19.82 7.56 27.72 12.55"/></g><g stroke-linecap="round"><path fill="none" stroke="#1864ab" stroke-width="2" d="M2150.149 1914.182c11.06-1.05 55.25-6.4 66.44-7.39m-62.51 12.74c11.02-.45 50.63-8.42 61.06-9.75"/><path fill="none" stroke="#1864ab" stroke-width="2" d="M2186.839 1926.592c6.49-1.79 14.33-4.49 28.57-13.88m-28.1 10.28c7.84-1.76 13.32-4.04 28.44-14.15"/><path fill="none" stroke="#1864ab" stroke-width="2" d="M2183.479 1906.352c6.85 2.7 15.43 4.44 31.93 6.36m-31.46-9.96c8.78 3.23 15.08 5.93 31.8 6.09"/></g><g stroke-linecap="round"><path fill="none" stroke="#1864ab" stroke-dasharray="8 10" stroke-width="2.5" d="M2504.424 1919.06c16.81-17.11 86.16-85.42 102.52-103"/><path fill="none" stroke="#1864ab" stroke-width="2.5" d="M2598.474 1846.94c1.8-14.83 2.24-19.25 8.11-33.72m-22.78 19.37c6.7-10.15 11.78-10.03 22.78-19.37"/></g><path fill="none" stroke="#1864ab" stroke-linecap="round" stroke-width="2" d="M2621.479 1900.151c67.57-3.93 136.13.57 169.36 0m-169.36 0c36.61-.79 72.45-.14 169.36 0m0 0c15.93-2.7 23.57 8.4 21.97 21.98m-21.97-21.98c12.76-.99 22.54 5.7 21.97 21.98m0 0c-3.35 12.4-1.46 19.43 0 43.96m0-43.96c1.47 10.28.61 23.27 0 43.96m0 0c1.57 15.35-5.39 18-21.97 21.98m21.97-21.98c4.02 19.14-4.7 17.46-21.97 21.98m0 0c-56.15-6.3-117.94-3.17-169.36 0m169.36 0c-60.62-1.2-124.86 1.41-169.36 0m0 0c-17.12-3.72-18.31-6.55-21.98-21.98m21.98 21.98c-12.97-.42-22.51-7.65-21.98-21.98m0 0c-.41-12.47-1.64-30.06 0-43.96m0 43.96c-2.55-14.76-1.18-27.87 0-43.96m0 0c1.35-17.31 7.56-20.85 21.98-21.98m-21.98 21.98c-.67-14.51 4.63-18.7 21.98-21.98"/><text x="101.5" y="33" fill="#1864ab" font-family="Helvetica, Segoe UI Emoji" font-size="36" style="white-space:pre" text-anchor="middle" transform="translate(2604.499 1923.61)">DAO2</text><g stroke-linecap="round"><path fill="none" stroke="#1864ab" stroke-dasharray="8 10" stroke-width="2.5" d="M2508.286 1922.323c13.67 4.54 68.47 19.1 82.18 23.22"/><path fill="none" stroke="#1864ab" stroke-width="2.5" d="M2563.036 1944.313c6.06.06 15.15-.57 31.09.42m-25.52-20.17c4.45 4.54 12.26 8.47 25.52 20.17"/></g><text x="8.5" y="27" fill="#1864ab" font-family="Cascadia, Segoe UI Emoji" font-size="28" style="white-space:pre" text-anchor="middle" transform="translate(2697.08 2001.741)">.</text><text x="8.5" y="61" fill="#1864ab" font-family="Cascadia, Segoe UI Emoji" font-size="28" style="white-space:pre" text-anchor="middle" transform="translate(2697.08 2001.741)">.</text><text x="8.5" y="95" fill="#1864ab" font-family="Cascadia, Segoe UI Emoji" font-size="28" style="white-space:pre" text-anchor="middle" transform="translate(2697.08 2001.741)">.</text><path fill="none" stroke="#1864ab" stroke-linecap="round" stroke-width="2" d="M3290.25 1807.153c55.41.52 107.72.15 203.62 0m-203.62 0c61.92-.3 123.97-2.01 203.62 0m0 0c17.47-3.4 22.39 6.49 23.42 23.42m-23.42-23.42c20.15-.61 20.86 6.13 23.42 23.42m0 0c.96 16.24-2.04 34.5 0 46.85m0-46.85c-1.71 17.72-2.15 33.3 0 46.85m0 0c2.99 15.61-9.14 24.49-23.42 23.43m23.42-23.43c-4.24 14.77-6.66 25.49-23.42 23.43m0 0c-66.7 6.16-127.85 4.91-203.62 0m203.62 0c-75.31-2.72-150.49-2.25-203.62 0m0 0c-17.18.93-27.24-10.49-23.42-23.43m23.42 23.43c-17.1 2.07-27.25-3.53-23.42-23.43m0 0c4.22-13.22 2.25-31.8 0-46.85m0 46.85c.28-17.95-.92-33.84 0-46.85m0 0c.95-14.01 6.34-26.27 23.42-23.42m-23.42 23.42c-3.59-15.84 5.25-19.35 23.42-23.42"/><text x="120" y="27" fill="#1864ab" font-family="Cascadia, Segoe UI Emoji" font-size="28" style="white-space:pre" text-anchor="middle" transform="translate(3271.83 1820.003)">create </text><text x="120" y="61" fill="#1864ab" font-family="Cascadia, Segoe UI Emoji" font-size="28" style="white-space:pre" text-anchor="middle" transform="translate(3271.83 1820.003)">porposal</text><text y="18" font-family="Virgil, Segoe UI Emoji" font-size="20" style="white-space:pre" transform="translate(3147.902 1746.409)">User</text><g fill-rule="evenodd" stroke-linecap="round"><path fill="none" stroke="#ced4da" d="M3158.585 1698.116s0 0 0 0m0 0s0 0 0 0m-6.43 19.59c5.09-5.86 10.18-11.71 19.68-22.64m-19.68 22.64c4.97-5.72 9.94-11.44 19.68-22.64m-26.11 42.22c11.32-13.01 22.63-26.03 34.78-40m-34.78 40c12.4-14.25 24.79-28.5 34.78-40m-24.15 39.97c10.88-12.51 21.75-25.01 29.53-33.96m-29.53 33.96c11.68-13.43 23.35-26.86 29.53-33.96m-18.9 33.93c5.1-5.87 10.2-11.73 24.94-28.68m-24.94 28.68c8.65-9.94 17.29-19.88 24.94-28.68m-17.59 32.41c5.22-5.99 10.43-11.99 21.65-24.9m-21.65 24.9c8.47-9.73 16.94-19.47 21.65-24.9m-9.05 22.61c5.07-5.83 10.13-11.66 13.12-15.1m-13.12 15.1 13.12-15.1m-54.94 13.19s0 0 0 0m0 0s0 0 0 0m12.04-.13c-2.36-2.06-4.72-4.11-10.57-9.19m10.57 9.19c-4.21-3.67-8.43-7.33-10.57-9.19m23.37 9.71c-5.6-4.86-11.2-9.73-21.89-19.03m21.89 19.03c-8.26-7.18-16.52-14.36-21.89-19.03m27.13 12.99c-7.05-6.13-14.1-12.26-23.39-20.34m23.39 20.34c-6.6-5.74-13.21-11.48-23.39-20.34m39.21 23.49c-9.68-8.41-19.35-16.82-36.23-31.49m36.23 31.49c-12.98-11.29-25.97-22.57-36.23-31.49m42.99 26.76c-8.89-7.72-17.77-15.44-37.74-32.8m37.74 32.8c-10.07-8.75-20.13-17.5-37.74-32.8m36.19 20.86c-11.44-9.95-22.89-19.9-30.19-26.24m30.19 26.24c-11.26-9.79-22.52-19.57-30.19-26.24"/><path fill="none" stroke="#000" stroke-width="2" d="M3145.115 1736.756c.92-4.85 1.58-21.76 5.52-29.07 3.94-7.31 12.09-14.27 18.13-14.8 6.04-.53 13.86 4.82 18.13 11.63 4.27 6.81 14.45 23.85 7.49 29.22-6.96 5.38-41.06 2.52-49.27 3.02m0 0c.92-4.85 1.58-21.76 5.52-29.07 3.94-7.31 12.09-14.27 18.13-14.8 6.04-.53 13.86 4.82 18.13 11.63 4.27 6.81 14.45 23.85 7.49 29.22-6.96 5.38-41.06 2.52-49.27 3.02"/></g><g stroke-linecap="round"><path fill="none" stroke="#ced4da" d="M3160.549 1673.975s0 0 0 0m0 0s0 0 0 0m-.53 12.8c3.08-3.54 6.16-7.09 13.78-15.85m-13.78 15.85c3.56-4.1 7.13-8.19 13.78-15.85m-7.74 21.1c3.81-4.39 7.62-8.77 15.09-17.36m-15.09 17.36c4.91-5.65 9.82-11.3 15.09-17.36m-19.22 14.77s0 0 0 0m0 0s0 0 0 0m13.55 1.18c-6.56-5.71-13.13-11.42-16.6-14.44m16.6 14.44c-3.39-2.95-6.78-5.9-16.6-14.44m23.36 9.71c-6.01-5.23-12.03-10.46-17.36-15.09m17.36 15.09c-4.18-3.63-8.35-7.26-17.36-15.09"/><path fill="none" stroke="#000" stroke-width="2" d="M3182.799 1681.105c0 .64-.07 1.28-.2 1.91-.12.63-.32 1.26-.56 1.86-.25.6-.57 1.19-.93 1.74-.37.56-.8 1.09-1.26 1.58-.47.49-1 .95-1.56 1.36-.56.41-1.17.78-1.8 1.1-.63.32-1.31.6-1.99.82-.69.22-1.41.38-2.13.5-.72.11-1.46.16-2.19.16s-1.47-.05-2.19-.16c-.72-.12-1.43-.28-2.12-.5-.69-.22-1.36-.5-1.99-.82-.64-.32-1.25-.69-1.8-1.1-.56-.41-1.09-.87-1.56-1.36-.47-.49-.9-1.02-1.26-1.58-.37-.55-.68-1.14-.93-1.74-.25-.6-.44-1.23-.57-1.86-.13-.63-.19-1.27-.19-1.91 0-.64.06-1.29.19-1.92.13-.63.32-1.26.57-1.86.25-.6.56-1.19.93-1.74.36-.56.79-1.09 1.26-1.58s1-.95 1.56-1.36c.55-.41 1.16-.78 1.8-1.1.63-.32 1.3-.6 1.99-.81.69-.22 1.4-.39 2.12-.5.72-.11 1.46-.17 2.19-.17s1.47.06 2.19.17c.72.11 1.44.28 2.13.5a13.113 13.113 0 0 1 3.79 1.91c.56.41 1.09.87 1.56 1.36.46.49.89 1.02 1.26 1.58.36.55.68 1.14.93 1.74.24.6.44 1.23.56 1.86.13.63.16 1.6.2 1.92.03.32.03-.32 0 0"/></g><g stroke-linecap="round"><path fill="none" stroke="#1864ab" stroke-dasharray="8 10" stroke-width="2.5" d="M3033.929 1698.955c17.91 3.94 87.71 15.9 105.76 18.6"/><path fill="none" stroke="#1864ab" stroke-width="2.5" d="M3113.729 1720.745c6.19 1.3 12.41-.45 25.97-7.06m-22.67-13.2c4.73 7.98 9.88 12.86 22.67 13.2"/></g><g stroke-linecap="round"><path fill="none" stroke="#1864ab" stroke-width="2" d="M3200.733 1766.868c11.25 6.7 59.99 33.52 72.05 40.48m-67.89-35.07c11.94 5.91 62.47 25.15 73.41 30.48"/><path fill="none" stroke="#1864ab" stroke-width="2" d="M3246.313 1798.878c14.9 1.42 28.52 5.53 33.52 3.53m-32.14.74c13.67.59 22.77-.51 28.61-2.27"/><path fill="none" stroke="#1864ab" stroke-width="2" d="M3254.333 1779.978c11.58 8.75 22.06 20.29 25.5 22.43m-24.13-18.15c10.51 7.62 16.56 13.71 20.6 16.62"/></g><text x="129.536" y="21.773" fill="#1864ab" font-family="Cascadia, Segoe UI Emoji" font-size="22.049" style="white-space:pre" text-anchor="middle" transform="translate(3260.959 1741.694)">Consumption of token</text><path fill="none" stroke="#1864ab" stroke-linecap="round" stroke-width="2" d="M3095.794 1993.917c42.41.66 81.93-2.33 183.88 0m-183.88 0c48.17.43 97.15 2.8 183.88 0m0 0c15.23-.46 20.12 8.64 22.06 22.06m-22.06-22.06c14.6-2.14 18.62 9.4 22.06 22.06m0 0c3 12.07-2.15 24.05 0 44.11m0-44.11c1.12 9 1.2 23.12 0 44.11m0 0c1.88 18.56-7.93 20.26-22.06 22.06m22.06-22.06c.17 13.17-11.79 17.48-22.06 22.06m0 0c-59.71-1.69-110.07-.08-183.88 0m183.88 0c-51.59-2.97-106.31-.87-183.88 0m0 0c-18.3 1.7-24.3-8.22-22.06-22.06m22.06 22.06c-16.75-.72-24.92-9.86-22.06-22.06m0 0c-2.44-18.71 1.78-38.52 0-44.11m0 44.11c.15-7.78-1.25-20.44 0-44.11m0 0c.09-13.21 5.44-20.33 22.06-22.06m-22.06 22.06c4.21-10.48 5.81-21.1 22.06-22.06"/><g stroke-linecap="round"><path fill="none" stroke="#1864ab" stroke-dasharray="8 10" stroke-width="2.5" d="M3263.83 1894.578c-18.81 16.38-91.77 78.34-109.98 93.74"/><path fill="none" stroke="#1864ab" stroke-width="2.5" d="M3172.44 1961.018c-9.44 9.46-16.26 21.63-20.29 27.68"/><path fill="none" stroke="#1864ab" stroke-width="2.5" d="M3185.71 1976.668c-13.62 4.08-24.85 11.06-33.56 12.03"/></g><text x="109" y="27" fill="#1864ab" font-family="Cascadia, Segoe UI Emoji" font-size="28" style="white-space:pre" text-anchor="middle" transform="translate(3078.734 2021.032)">porposal</text><path fill="none" stroke="#1864ab" stroke-dasharray="8 10" stroke-linecap="round" stroke-width="2.5" d="M2949.152 1803.865c38.71-.51 80.6 1.63 138.37 0m0 0c14.68 1.56 21.48 10.05 23.32 23.32m0 0c2.4 16.58 1.73 29.47 0 46.64m0 0c-3.1 15.61-3.81 20.07-23.32 23.32m0 0c-29.55.21-67.93-5.75-138.37 0m0 0c-18.77.33-20.4-8.92-23.32-23.32m0 0c-1.23-18.22 3.6-28.82 0-46.64m0 0c-3.49-19.12 4.35-24.51 23.32-23.32"/><g stroke-linecap="round"><path fill="none" stroke="#1864ab" stroke-dasharray="8 10" stroke-width="2.5" d="M2996.198 1753.096c5.54 8.56 25.17 40.39 29.54 48.67"/><path fill="none" stroke="#1864ab" stroke-width="2.5" d="M3005.628 1784.416c.04-.85 6.42 6.79 21.03 20.5"/><path fill="none" stroke="#1864ab" stroke-width="2.5" d="M3023.348 1774.166c-3.83 1.53-1.27 11.37 3.31 30.75"/></g><text x="87.5" y="15" fill="#1864ab" font-family="Cascadia, Segoe UI Emoji" font-size="16" style="white-space:pre" text-anchor="middle" transform="translate(2930.832 1841.006)">Reputation value</text><g stroke-linecap="round"><path fill="none" stroke="#1864ab" stroke-width="2" d="M3034.38 1897.979c20.14 16.93 102.87 84.29 123.12 101.19m-118.65-104.05c19.81 17.31 98.04 88.72 117.23 106.43"/><path fill="none" stroke="#1864ab" stroke-width="2" d="M3127.32 1992.229c6.96 1.74 16.55 6.47 31.37 9.7m-28.74-11.31c7.47 4.01 20.19 6.12 24.16 12.03"/><path fill="none" stroke="#1864ab" stroke-width="2" d="M3141.19 1977.099c2.19 6.68 7.14 16.46 17.5 24.83m-14.87-26.44c2.21 9.93 9.74 17.69 10.29 27.16"/></g><text x="33.5" y="27" fill="#1864ab" font-family="Cascadia, Segoe UI Emoji" font-size="28" style="white-space:pre" text-anchor="middle" transform="translate(3020.056 1933.625)">vote</text><path fill="none" stroke="#862e9c" stroke-linecap="round" stroke-width="2" d="M3295.084 10c186.59 1.8 373.41 2.3 597.88 0m-597.88 0c183.31 2.78 364.96 2.65 597.88 0m0 0c167.34 3.8 246.22 79.54 247.25 247.25M3892.964 10c168.49-3.16 249.45 80.68 247.25 247.25m0 0c.01 137.47.8 276.47 0 494.51m0-494.51c1.3 146.52 1.61 292.07 0 494.51m0 0c-2.07 163.91-81.79 250.3-247.25 247.26m247.25-247.26c-2.56 166.16-85.62 245.33-247.25 247.26m0 0c-127.78-3.45-258.97-4.18-597.88 0m597.88 0c-215.19-1.74-429.41-2.76-597.88 0m0 0c-163.16-3.01-247.6-79.51-247.25-247.26m247.25 247.26c-161.99 4.41-246.59-84.92-247.25-247.26m0 0c-3.76-181.28-4.04-365.12 0-494.51m0 494.51c-1.9-179.8-1.37-361.11 0-494.51m0 0c-3.63-165.44 84.32-246.19 247.25-247.25m-247.25 247.25c-1.31-160.62 84.51-250.83 247.25-247.25"/><text x="541" y="43" fill="#364fc7" font-family="Helvetica, Segoe UI Emoji" font-size="45.941" style="white-space:pre" text-anchor="middle" transform="translate(3052.834 16.38)">NID(NNSDAO Identifier)</text><text x="499" y="33" fill="#c92a2a" font-family="Helvetica, Segoe UI Emoji" font-size="35.732" style="white-space:pre" text-anchor="middle" transform="translate(3109.093 117.687)">It is an identity system built on the basis of the ICP ecosystem, </text><text x="499" y="74" fill="#c92a2a" font-family="Helvetica, Segoe UI Emoji" font-size="35.732" style="white-space:pre" text-anchor="middle" transform="translate(3109.093 117.687)">through which the user&apos;s reputation value is acquired,</text><text x="499" y="115" fill="#c92a2a" font-family="Helvetica, Segoe UI Emoji" font-size="35.732" style="white-space:pre" text-anchor="middle" transform="translate(3109.093 117.687)">the future will continue to improve the corresponding algorithm</text><text y="18" font-family="Virgil, Segoe UI Emoji" font-size="20" style="white-space:pre" transform="translate(3092.034 534.74)">User</text><g fill-rule="evenodd" stroke-linecap="round"><path fill="none" stroke="#ced4da" d="M3102.717 486.447s0 0 0 0m0 0s0 0 0 0m-6.43 19.59c4.17-4.8 8.33-9.59 19.68-22.64m-19.68 22.64 19.68-22.64m-26.11 42.22c7.97-9.16 15.94-18.32 34.78-40m-34.78 40c12.95-14.89 25.89-29.78 34.78-40m-24.15 39.97c8.89-10.22 17.77-20.43 29.53-33.96m-29.53 33.96c6.89-7.92 13.78-15.84 29.53-33.96m-18.9 33.93c7.28-8.37 14.56-16.74 24.94-28.68m-24.94 28.68c7.41-8.52 14.82-17.04 24.94-28.68m-17.59 32.41c6.1-7.01 12.2-14.03 21.65-24.9m-21.65 24.9c7.8-8.96 15.59-17.92 21.65-24.9m-9.05 22.61c3.64-4.18 7.27-8.36 13.12-15.1m-13.12 15.1c3.74-4.3 7.47-8.59 13.12-15.1m-54.94 13.19s0 0 0 0m0 0s0 0 0 0m12.04-.13c-2.31-2.01-4.62-4.02-10.57-9.19m10.57 9.19c-2.43-2.11-4.86-4.23-10.57-9.19m23.37 9.71c-4.94-4.29-9.87-8.58-21.89-19.03m21.89 19.03c-6.52-5.67-13.04-11.33-21.89-19.03m27.13 12.99c-8.95-7.79-17.91-15.57-23.39-20.34m23.39 20.34c-6.95-6.04-13.89-12.08-23.39-20.34m39.21 23.49c-7.96-6.92-15.92-13.84-36.23-31.49m36.23 31.49c-12.21-10.61-24.42-21.22-36.23-31.49m42.99 26.76c-10.06-8.74-20.12-17.49-37.74-32.8m37.74 32.8c-12.03-10.45-24.06-20.91-37.74-32.8m36.19 20.86c-11.13-9.67-22.26-19.35-30.19-26.24m30.19 26.24c-6.72-5.85-13.45-11.69-30.19-26.24"/><path fill="none" stroke="#000" stroke-width="2" d="M3089.247 525.087c.92-4.85 1.58-21.76 5.52-29.07 3.94-7.31 12.09-14.27 18.13-14.8 6.04-.53 13.86 4.82 18.13 11.63 4.27 6.81 14.45 23.85 7.49 29.22-6.96 5.38-41.06 2.52-49.27 3.02m0 0c.92-4.85 1.58-21.76 5.52-29.07 3.94-7.31 12.09-14.27 18.13-14.8 6.04-.53 13.86 4.82 18.13 11.63 4.27 6.81 14.45 23.85 7.49 29.22-6.96 5.38-41.06 2.52-49.27 3.02"/></g><g stroke-linecap="round"><path fill="none" stroke="#ced4da" d="M3104.681 462.306s0 0 0 0m0 0s0 0 0 0m-.53 12.8c3.91-4.5 7.82-8.99 13.78-15.85m-13.78 15.85c2.92-3.36 5.84-6.71 13.78-15.85m-7.74 21.1c4.49-5.17 8.98-10.33 15.09-17.36m-15.09 17.36 15.09-17.36m-19.22 14.77s0 0 0 0m0 0s0 0 0 0m13.55 1.18c-3.87-3.37-7.74-6.74-16.6-14.44m16.6 14.44c-4.84-4.22-9.69-8.43-16.6-14.44m23.36 9.71c-5.15-4.48-10.31-8.96-17.36-15.09m17.36 15.09-17.36-15.09"/><path fill="none" stroke="#000" stroke-width="2" d="M3126.931 469.436c0 .64-.07 1.28-.2 1.91-.12.63-.32 1.26-.56 1.86-.25.6-.57 1.19-.93 1.74-.37.56-.8 1.09-1.26 1.58-.47.49-1 .95-1.56 1.36-.56.41-1.17.78-1.8 1.1-.63.32-1.31.6-1.99.82-.69.22-1.41.38-2.13.5-.72.11-1.46.16-2.19.16s-1.47-.05-2.19-.16c-.72-.12-1.43-.28-2.12-.5-.69-.22-1.36-.5-1.99-.82-.64-.32-1.25-.69-1.8-1.1-.56-.41-1.09-.87-1.56-1.36-.47-.49-.9-1.02-1.26-1.58-.37-.55-.68-1.14-.93-1.74-.25-.6-.44-1.23-.57-1.86-.13-.63-.19-1.27-.19-1.91 0-.64.06-1.29.19-1.92.13-.63.32-1.26.57-1.86.25-.6.56-1.19.93-1.74.36-.56.79-1.09 1.26-1.58s1-.95 1.56-1.36c.55-.41 1.16-.78 1.8-1.1.63-.32 1.3-.6 1.99-.81.69-.22 1.4-.39 2.12-.5.72-.11 1.46-.17 2.19-.17s1.47.06 2.19.17c.72.11 1.44.28 2.13.5a13.113 13.113 0 0 1 3.79 1.91c.56.41 1.09.87 1.56 1.36.46.49.89 1.02 1.26 1.58.36.55.68 1.14.93 1.74.24.6.44 1.23.56 1.86.13.63.16 1.6.2 1.92.03.32.03-.32 0 0"/></g><path fill="none" stroke="#364fc7" stroke-linecap="round" stroke-width="2" d="M3232.342 452.26c17.91-1.37 32.02-.47 56.73 0m-56.73 0c12.67.29 27.12-.75 56.73 0m0 0c18.36-.1 27.39 8.66 26.19 26.2m-26.19-26.2c18.72-.45 30.53 4.8 26.19 26.2m0 0c-2.17 13.51-1.53 23.42 0 52.39m0-52.39c-.13 15.15-.16 30.78 0 52.39m0 0c-.45 16.48-4.77 27.34-26.19 26.19m26.19-26.19c2.61 16.59-7.24 25.7-26.19 26.19m0 0c-12.59-.41-20.89-4.26-56.73 0m56.73 0c-21.64-.6-43-.53-56.73 0m0 0c-20.18-3.4-25.43-8.32-26.2-26.19m26.2 26.19c-16.33 3.13-27.46-4.25-26.2-26.19m0 0c1.74-17.8-2.39-43.63 0-52.39m0 52.39c.16-18.64-1.12-37.01 0-52.39m0 0c1.17-16.69 10.93-29.6 26.2-26.2m-26.2 26.2c3.26-17.31 4.94-26.9 26.2-26.2"/><text x="49.5" y="26" fill="#364fc7" font-family="Helvetica, Segoe UI Emoji" font-size="28" style="white-space:pre" text-anchor="middle" transform="translate(3211.142 488.652)">NID</text><path fill="none" stroke="#364fc7" stroke-linecap="round" stroke-width="2" d="M3464.11 336.246c83.507 3.99 166.282 1.072 265.999-.54m-266 .54c81.869-.846 163.556-2.273 266-.54m0 0c14.172.96 22.743 6.663 19.54 19.46m-19.54-19.46c15.494 2.108 23.141 5.732 19.54 19.46m0 0c1.352 11.087-.203 18.55.079 39m-.08-39c-1.223 13.072.139 23.8.08 39m0 0c2.138 13.885-4.436 16.998-19.46 19.539m19.46-19.54c2.833 11.575-4.528 20.96-19.46 19.54m0 0c-98.938 1.381-195.935 2.818-266 .54m266-.54c-78.254-1.58-155.224-1.194-266 .54m0 0c-11.175-2.396-19.84-4.669-19.54-19.46m19.54 19.46c-14.523-1.56-23.2-9.642-19.54-19.46m0 0c-1.129-9.317.419-25.33-.08-39m.08 39c-1.68-14.596.866-31.681-.08-39m0 0c-.952-16.268 6.381-19.502 19.461-19.539m-19.46 19.54c-1.022-10.618 7.415-17.026 19.46-19.54"/><text x="147.5" y="26" fill="#364fc7" font-family="Helvetica, Segoe UI Emoji" font-size="28" style="white-space:pre" text-anchor="middle" transform="rotate(-.116 178444.252 -1696627.959)">ICP Token Amount</text><path fill="none" stroke="#364fc7" stroke-linecap="round" stroke-width="2" d="M3461.28 433.9c72-.087 146.174-3.407 275-.56m-275 .56c75.746 2.326 148.167 2.639 275-.56m0 0c15.613 1.449 16.589 4.077 19.54 19.461m-19.54-19.46c14.996 2.79 20.43 9.398 19.54 19.46m0 0c-4.027 11.218-.133 13.33.08 39m-.08-39c-1.898 10.794.518 23.669.08 39m0 0c3.302 15.873-7.696 22.166-19.461 19.54m19.46-19.54c-1.188 10.562-7.999 15.206-19.46 19.54m0 0c-76.017-3.386-149.412-.717-275 .559m275-.56c-109.874-2.076-216.587-3.36-275 .56m0 0c-16.052-1.468-16.4-10.127-19.54-19.46m19.54 19.46c-16.796 1.684-18.77-5.192-19.54-19.46m0 0c-2.507-8.926 1.573-23.464-.078-39m.079 39c.59-15.092 1.256-31.443-.08-39m0 0c.447-11.812 10.162-18.961 19.46-19.54m-19.46 19.54c-2.588-8.955 10.16-20.061 19.46-19.54"/><text x="152" y="26" fill="#364fc7" font-family="Helvetica, Segoe UI Emoji" font-size="28" style="white-space:pre" text-anchor="middle" transform="rotate(-.116 226476.544 -1695187.975)">custom Token Amount</text><path fill="none" stroke="#364fc7" stroke-linecap="round" stroke-width="2" d="M3464.953 544.36c82.666-1.778 172.066 3.13 274.999-.56m-275 .56c100.077-2.024 201.465-3.01 275-.56m0 0c16.63-.413 17.185 7.226 19.54 19.46m-19.54-19.46c11.264 2.228 17.831 5.654 19.54 19.46m0 0c2.12 14.877 1.984 21.787.079 39m-.08-39c1.835 12.217 1.896 22.237.08 39m0 0c-.38 14.842-9.95 19.941-19.46 19.54m19.46-19.54c.924 11.829-9.918 20.951-19.46 19.54m0 0c-89.015-2.079-171.807 1.72-275 .56m275-.56c-59.68.742-119.273-1.347-275 .56m0 0c-10.364 3.12-22.085-2.506-19.54-19.46m19.54 19.46c-11.997 1.454-20.49-10.089-19.54-19.46m0 0c-2.911-5.825 2.342-18.906-.079-39m.08 39c.871-9.063-1.327-17.818-.08-39m0 0c-4-9.923 8.406-16.988 19.46-19.54m-19.46 19.54c3.421-14.218 2.448-20.866 19.46-19.54"/><text x="152" y="26" fill="#364fc7" font-family="Helvetica, Segoe UI Emoji" font-size="28" style="white-space:pre" text-anchor="middle" transform="rotate(-.116 280811.07 -1696938.703)">NNS Voting Power</text><path fill="none" stroke="#364fc7" stroke-linecap="round" stroke-width="2" d="M3459.262 661.04c79.223-3.621 161.276-2.248 338-.687m-338 .687c132.335-2.49 264.664-3.128 338-.687m0 0c12.628-.816 19.03 4.921 18.537 18.462m-18.537-18.462c10.623-3.192 16.567 8.626 18.537 18.462m0 0c-1.464 12.633-2.604 27.466.075 37m-.075-37c1.685 7.507.856 17.778.075 37m0 0c-.795 12.142-2.154 22.335-18.462 18.538m18.462-18.538c-.987 15.822-6.446 16.353-18.462 18.538m0 0c-99.317-3.228-199.029.814-338 .687m338-.687c-130.057-3.286-260.686-2.62-338 .687m0 0c-12.005 2.314-20.447-8.449-18.537-18.463m18.538 18.463c-14.91-4.29-18.29-4.613-18.538-18.463m0 0c1.762-9.093 1.162-14.052-.075-37m.075 37c-.05-14.54.624-27.64-.075-37m0 0c3.909-10.427 4.148-15.708 18.462-18.537m-18.462 18.538c.222-8.78 10.057-15.97 18.462-18.538"/><text x="182.5" y="26" fill="#364fc7" font-family="Helvetica, Segoe UI Emoji" font-size="28" style="white-space:pre" text-anchor="middle" transform="rotate(-.116 329346.347 -1694564.334)">Degree of project </text><text x="182.5" y="58" fill="#364fc7" font-family="Helvetica, Segoe UI Emoji" font-size="28" style="white-space:pre" text-anchor="middle" transform="rotate(-.116 329346.347 -1694564.334)">participation/contribution</text><path fill="none" stroke="#364fc7" stroke-linecap="round" stroke-width="2" d="M3503.48 292.308c53.904 1.43 102.84-.78 210.55-.428m-210.55.428c68.526 2.69 136.124 1.243 210.55-.428m0 0c68.293.96 108.91 34.508 105.484 105.065M3714.03 291.88c68.778 3.86 109.848 33.346 105.484 105.065m0 0c-2.253 135.885 1.79 274.957.8 393.34m-.8-393.34c-.388 99.021.602 197.52.8 393.34m0 0c-3.344 71.606-33.408 104.498-105.056 105.483m105.056-105.483c1.704 71.086-37.22 108.235-105.056 105.483m0 0c-64.24-.18-130.403-1.305-210.55.428m210.55-.428c-65.285-2.487-132.9-.12-210.55.428m0 0c-73.88-.26-108.718-38.619-105.493-105.055m105.494 105.055c-67.562 4.088-107.527-32.581-105.494-105.055m0 0c-2.555-85.955-2.406-175.116-.8-393.34m.8 393.34c2.26-152.465 1.763-303.155-.8-393.34m0 0c-2.415-66.615 35.91-108.463 105.066-105.493M3398.415 397.8c1.835-71.443 36.36-108.084 105.066-105.493"/><g stroke-linecap="round"><path fill="none" stroke="#364fc7" stroke-width="2" d="M3144.317 514.436c10.96-1.48 55.96-6.94 66.62-7.84m-70.1 5.67c10.53-1.24 55.74-1.3 67.88-2.64m-26.82 11.75c6.55-7.6 19.09-8.02 27.75-8.5m-30.27 8.59c13.02-4.6 20.28-9.32 27.48-11.22"/><path fill="none" stroke="#364fc7" stroke-width="2" d="M3180.837 500.876c7.13-.88 20.02 5.43 28.81 12m-31.33-11.91c13.73 2.87 21.38 5.62 28.54 9.28"/></g><g stroke-linecap="round"><path fill="none" stroke="#364fc7" stroke-dasharray="8 10" stroke-width="2.5" d="M3312.802 509.767c14.97.02 77.21-1.13 92.61-1.33"/><path fill="none" stroke="#364fc7" stroke-width="2.5" d="M3380.082 519.117c6.77-3.35 16.22-7.2 22.29-14.4"/><path fill="none" stroke="#364fc7" stroke-width="2.5" d="M3379.762 498.607c6.94 3.39 16.5 6.29 22.61 6.11"/></g><path fill="none" stroke="#364fc7" stroke-linecap="round" stroke-width="2" d="M3931.411 472.339c36.5-2.87 72.01-1.04 144 0m-144 0c35.4 1.67 67.04 2.17 144 0m0 0c14.79 1.28 14.75 6.5 18.5 18.5m-18.5-18.5c13.81 4.4 16.75 7.41 18.5 18.5m0 0c-.83 18.39 2.43 27.2 0 37m0-37c.06 12.83 1.73 24.12 0 37m0 0c1.61 12.96-5.76 18.77-18.5 18.5m18.5-18.5c-.17 10.82-3.3 22.35-18.5 18.5m0 0c-51.77-3.58-103-5.56-144 0m144 0c-57.97-3.58-111.81-4.57-144 0m0 0c-16.01 3.29-19.76-9.68-18.5-18.5m18.5 18.5c-16.45-1.33-19.61-3.32-18.5-18.5m0 0c1.07-7.97-.09-17.43 0-37m0 37c1.28-5.91-1.62-16.46 0-37m0 0c1.06-13.34 7.62-17.78 18.5-18.5m-18.5 18.5c-2.95-15.16 5.34-22.27 18.5-18.5"/><text x="85.5" y="26" fill="#364fc7" font-family="Helvetica, Segoe UI Emoji" font-size="28" style="white-space:pre" text-anchor="middle" transform="translate(3917.911 477.339)">Reputation </text><text x="85.5" y="58" fill="#364fc7" font-family="Helvetica, Segoe UI Emoji" font-size="28" style="white-space:pre" text-anchor="middle" transform="translate(3917.911 477.339)">value</text><g stroke-linecap="round"><path fill="none" stroke="#364fc7" stroke-width="2" d="M3819.45 529.333c16.29-3.22 82.67-16.99 99.98-20.71m-95.5 17.69c15.72-2.57 76.1-11.43 92.61-14.32"/><path fill="none" stroke="#364fc7" stroke-width="2" d="M3888.87 524.863c9.73.93 16.13-3.78 29.27-16.08m-28.85 16.05c7.16-2.56 14.16-7.15 26.75-14.84"/><path fill="none" stroke="#364fc7" stroke-width="2" d="M3885.63 504.593c10.47 7.71 17.95 9.74 32.51 4.19m-32.08-4.21c8.2 2.25 15.98 2.51 29.98 5.42"/></g><g stroke-linecap="round"><path fill="none" stroke="#364fc7" stroke-dasharray="8 10" stroke-width="2.5" d="M3991.112 553.399c-17.54 57.17 14.35 288.52-105.75 344.63-120.11 56.11-484.46 46.37-614.87-7.96-130.42-54.33-139.84-265.61-167.61-318.01"/><path fill="none" stroke="#364fc7" stroke-width="2.5" d="M3117.002 597.509c-.89-9.64-6.69-13.93-16.23-24.9m-3.47 30.65c3.89-10.87 2.84-16.54 3.47-30.65"/></g><path fill="none" stroke="#862e9c" stroke-linecap="round" stroke-width="2" d="M481.448 465.6c81.48.89 166.37 4.25 233.96 0m-233.96 0c52.67-.06 102.98-.31 233.96 0m0 0c16.1-1.78 27.25 6.8 27.52 27.52m-27.52-27.52c21.68-.82 24.6 6.58 27.52 27.52m0 0c.47 19.66 2.73 43.82 0 55.04m0-55.04c-.13 20.06 1.01 40.16 0 55.04m0 0c.61 17.77-9.26 28.48-27.52 27.52m27.52-27.52c-4.13 14.41-11.93 24.14-27.52 27.52m0 0c-59.74 2.53-124.26.85-233.96 0m233.96 0c-73.02 2.32-150.88 3.19-233.96 0m0 0c-20.45.44-27.23-12.8-27.52-27.52m27.52 27.52c-16.66-.22-28.79-5.57-27.52-27.52m0 0c-3.74-17.99 2.42-41.61 0-55.04m0 55.04c-.89-11.83 1.8-23.64 0-55.04m0 0c-3.64-20.2 8.79-29.74 27.52-27.52m-27.52 27.52c-.29-19.47 10.08-26.06 27.52-27.52"/><text x="139.5" y="26" fill="#862e9c" font-family="Helvetica, Segoe UI Emoji" font-size="28" style="white-space:pre" text-anchor="middle" transform="translate(458.928 504.64)">NID SDK</text><path fill="none" stroke="#364fc7" stroke-linecap="round" stroke-width="2" d="M3476.976 770.877c103.786 2.829 207.339-.662 304.499-.62m-304.5.62c86.967-1.897 175.774-3.478 304.5-.62m0 0c9.949-.54 18.382 5.753 18.287 18.213m-18.287-18.212c12.156-2.215 22.534 6.914 18.287 18.212m0 0c-1.457 11.463-1.257 21.153.074 36.5m-.074-36.5c2.026 8.056.139 14.16.074 36.5m0 0c-3.62 14.548-4.45 19.75-18.213 18.287m18.213-18.287c2.492 15.505-7.18 19.935-18.213 18.287m0 0c-90.889.405-182.214 3.17-304.499.62m304.5-.62c-91.507 1.726-183.597 1.874-304.5.62m0 0c-14.615-2.23-17.64-5.315-18.287-18.213m18.287 18.212c-14.678 1.05-20.216-7.938-18.287-18.212m0 0c-4.114-7.102 3.456-21.768-.074-36.5m.074 36.5c-.552-10.63.631-19.012-.074-36.5m0 0c3.788-10.598 5.178-20.46 18.213-18.287m-18.213 18.287c4.164-7.949 10.586-21.402 18.213-18.287"/><text x="165.5" y="26" fill="#364fc7" font-family="Helvetica, Segoe UI Emoji" font-size="28" style="white-space:pre" text-anchor="middle" transform="rotate(-.116 391005.314 -1703352.946)">...</text><path fill="none" stroke="#364fc7" stroke-linecap="round" stroke-width="4" d="M298.745 1117.911c153.66-1.45 309.94-1.87 569.02 0m-569.02 0c188.96-1.49 379.99-2.29 569.02 0m0 0c131.43 2.19 188.55 64.66 191.66 191.67m-191.66-191.67c127.43.91 188.43 63.89 191.66 191.67m0 0c-2.24 100.71-2.09 198.44 0 383.33m0-383.33c-2.85 91.93-4.16 185.32 0 383.33m0 0c3.2 124.07-66.14 195.34-191.66 191.67m191.66-191.67c-.7 131.42-65.39 192.66-191.66 191.67m0 0c-219.66-1.59-439.29-.72-569.02 0m569.02 0c-224.69 3.2-447.37 3.23-569.02 0m0 0c-124.58-1.12-188.82-64.8-191.67-191.67m191.67 191.67c-124.59-4.17-189.24-68.44-191.67-191.67m0 0c-2.67-99.34-4.84-201.88 0-383.33m0 383.33c3.22-145.67 2.84-291.14 0-383.33m0 0c1.82-125.43 66.28-192.98 191.67-191.67m-191.67 191.67c-1.78-124.38 60.26-193.3 191.67-191.67"/><text x="113.5" y="32" fill="#364fc7" font-family="Virgil, Segoe UI Emoji" font-size="36" style="white-space:pre" text-anchor="middle" transform="translate(466.889 1132.867)">DAO Manage</text><path fill="none" stroke="#087f5b" stroke-linecap="round" stroke-width="4" d="M316.51 1237.237c172.54 1.56 348.6.37 494.14 0m-494.14 0c195.56 1.31 389.89 1.07 494.14 0m0 0c103.04 2.04 146 52.96 148.92 148.93m-148.92-148.93c97.64-3.36 147.19 52.06 148.92 148.93m0 0c-3.3 66.5-3.03 135.52 0 297.86m0-297.86c2.18 102.46.17 206.76 0 297.86m0 0c3.1 98.08-49.53 152.2-148.92 148.92m148.92-148.92c2.27 100.05-50.33 151.74-148.92 148.92m0 0c-168.63 1.64-337.98 2.54-494.14 0m494.14 0c-183.42-.07-367.66-.53-494.14 0m0 0c-98.08.52-150.14-51.01-148.93-148.92m148.93 148.92c-97.52-2.91-144.87-53.83-148.93-148.92m0 0c-5.07-77.06-5.56-152.04 0-297.86m0 297.86c-2.47-108.57-2.91-215.75 0-297.86m0 0c-.72-98.74 46.32-148.93 148.93-148.93m-148.93 148.93c-1.33-101.84 52.06-153.33 148.93-148.93"/><text x="110" y="32" fill="#2b8a3e" font-family="Virgil, Segoe UI Emoji" font-size="36" style="white-space:pre" text-anchor="middle" transform="translate(459.227 1252.85)">DAON/DAOS</text><path fill="none" stroke="#5c940d" stroke-linecap="round" stroke-width="4" d="M364.74 1332.916c99.29-3.17 200.07-1.51 417.2 0m-417.2 0c152.88-1.4 306.66-2.62 417.2 0m0 0c71.05 3.39 114.41 36.84 111.2 111.21m-111.2-111.21c71.28 3.19 111.12 35.07 111.2 111.21m0 0c1.54 54.63-.31 108.63 0 222.41m0-222.41c4.55 71.72 2.32 141.65 0 222.41m0 0c-2.97 73.49-36.98 108.33-111.2 111.21m111.2-111.21c2.23 74.28-33.01 107.26-111.2 111.21m0 0c-139.26-3.13-278.9-3.29-417.2 0m417.2 0c-158.9 2.59-319.04 3-417.2 0m0 0c-72.38-2.73-112.89-40.67-111.21-111.21m111.21 111.21c-78.46-3.84-111-32.78-111.21-111.21m0 0c2.75-85.23 1.55-168.45 0-222.41m0 222.41c-.68-87.73-1.01-176.1 0-222.41m0 0c1.75-75.29 37.37-113.96 111.21-111.21m-111.21 111.21c2.52-73.75 40.16-108.48 111.21-111.21"/><text x="124.5" y="29" fill="#5c940d" font-family="Virgil, Segoe UI Emoji" font-size="32.268" style="white-space:pre" text-anchor="middle" transform="translate(460.598 1358.028)">Workflow plugins</text><path fill="none" stroke="#364fc7" stroke-linecap="round" stroke-width="2" d="M357.625 1457.958c35.66-3.26 69.54.42 119.01 0m-119.01 0c32.08-1.58 61.69-1.04 119.01 0m0 0c10.31 2.26 8.48 3.46 10.5 10.5m-10.5-10.5c4.26 4.11 7.76 4.63 10.5 10.5m0 0c-2.14 6.49 3.62 9.72 0 21m0-21c-.86 6.84-.28 10.74 0 21m0 0c-.82 9.69-1.47 13.36-10.5 10.5m10.5-10.5c-2.7 2.57-.9 12.14-10.5 10.5m0 0c-46.53-2.47-92.22 1.72-119.01 0m119.01 0c-44.43-3.5-90.51-2.14-119.01 0m0 0c-6.16-3.1-12.25-1.59-10.5-10.5m10.5 10.5c-5.85-1.83-13.63-4.51-10.5-10.5m0 0c-1.05-3.15.8-10.31 0-21m0 21c-.34-6.97.97-15.1 0-21m0 0c-3.22-3.79 7.05-14.17 10.5-10.5m-10.5 10.5c-.7-4.59 7.59-8.25 10.5-10.5"/><text x="65" y="26" fill="#364fc7" font-family="Helvetica, Segoe UI Emoji" font-size="28" style="white-space:pre" text-anchor="middle" transform="translate(352.125 1462.958)">Chat</text><path fill="none" stroke="#364fc7" stroke-linecap="round" stroke-width="2" d="M621.98 1458.655c42.39 1.42 79.41-5.36 119.01 0m-119.01 0c46.36-3.87 92.34-3.65 119.01 0m0 0c7.89-2.49 13.62 7.13 10.5 10.5m-10.5-10.5c8.54 3.53 13.27 4.78 10.5 10.5m0 0c3.28 7.83.14 14.72 0 21m0-21c-.55 8.36-.79 13.65 0 21m0 0c1.61 10.67-4.52 11.1-10.5 10.5m10.5-10.5c2.55 7.51 1.01 15.02-10.5 10.5m0 0c-43.48 5.23-88.18 5.16-119.01 0m119.01 0c-28.05-.33-56.49.67-119.01 0m0 0c-7.13-3.79-7.18-1.07-10.5-10.5m10.5 10.5c-7.08 3.21-7.18-7.38-10.5-10.5m0 0c1.21-3.15 2.18-8.22 0-21m0 21c2.22-5.81.37-8.26 0-21m0 0c3.88-10.16 5.47-13.64 10.5-10.5m-10.5 10.5c1.78-4.35 7.27-7.99 10.5-10.5"/><text x="65" y="26" fill="#364fc7" font-family="Helvetica, Segoe UI Emoji" font-size="28" style="white-space:pre" text-anchor="middle" transform="translate(616.48 1463.655)">Sponsor</text><path fill="none" stroke="#364fc7" stroke-linecap="round" stroke-width="2" d="M334.154 1553.128c59.04 3.97 122.14-.57 174.5 0m-174.5 0c38.46 1.91 75.07 1.87 174.5 0m0 0c13.15-2.03 11.13 6.03 13.75 13.75m-13.75-13.75c12.54-.4 13.21 6.31 13.75 13.75m0 0c4.03 12.44 3.43 24.54 0 27.5m0-27.5c-1.4 6.95.68 11.12 0 27.5m0 0c1.67 7.23-2.26 15.44-13.75 13.75m13.75-13.75c2.97 8.9-8.24 13.26-13.75 13.75m0 0c-67.45-2.25-131.27-5.74-174.5 0m174.5 0c-69.07-2.27-137.12-.17-174.5 0m0 0c-7.44-.14-17.02-3.24-13.75-13.75m13.75 13.75c-13.25-3.11-16.23-4.32-13.75-13.75m0 0c-.88-10.43 3.61-16.61 0-27.5m0 27.5c2.36-10.09.03-16.83 0-27.5m0 0c-3.29-8.88 3.79-15.14 13.75-13.75m-13.75 13.75c4.11-9.94 5.11-14.83 13.75-13.75"/><text x="96" y="26" fill="#364fc7" font-family="Helvetica, Segoe UI Emoji" font-size="28" style="white-space:pre" text-anchor="middle" transform="translate(325.404 1564.628)">Task platform</text><path fill="none" stroke="#364fc7" stroke-linecap="round" stroke-width="2" d="M561.82 1554.057c78.6-.5 154.11-.47 271 0m-271 0c102.66-2.6 202.33-3.1 271 0m0 0c16.24-2.42 21.87 9.01 18.5 18.5m-18.5-18.5c14.29-1.87 15.59 1.67 18.5 18.5m0 0c.49 10.04 3.29 11.79 0 37m0-37c-1.67 7.2.91 14.44 0 37m0 0c.86 13.03-4.79 17.81-18.5 18.5m18.5-18.5c-4.37 10.39-6.87 22.37-18.5 18.5m0 0c-87.97 3.25-171.76 3.73-271 0m271 0c-63.39-.14-128.22-1.33-271 0m0 0c-12.91-.21-17.06-6.11-18.5-18.5m18.5 18.5c-10.17-3.13-17.18-3.97-18.5-18.5m0 0c-.34-12.56-4.22-28.62 0-37m0 37c-.47-13.43-1.08-24.89 0-37m0 0c3.3-14.18 6.84-15.78 18.5-18.5m-18.5 18.5c-3.62-10.56 7.86-17.27 18.5-18.5"/><text x="149" y="26" fill="#364fc7" font-family="Helvetica, Segoe UI Emoji" font-size="28" style="white-space:pre" text-anchor="middle" transform="translate(548.32 1575.057)">Membership Manage</text><path fill="none" stroke="#364fc7" stroke-linecap="round" stroke-width="2" d="M351.095 1654.167c102.5-3.2 208.43-1.66 421.5 0m-421.5 0c153.9.2 305.48-.39 421.5 0m0 0c12.81 1.14 14.25 3.01 16.25 16.25m-16.25-16.25c12.35-1.45 17.47 7.64 16.25 16.25m0 0c.79 9.99 1.79 17.85 0 32.5m0-32.5c.78 14.21.38 24.86 0 32.5m0 0c-2.29 13.4-7.12 15.3-16.25 16.25m16.25-16.25c-3.09 6.25-3.45 11.79-16.25 16.25m0 0c-97.96-4.35-192.75-3.58-421.5 0m421.5 0c-113.87-1.68-229.56-3.21-421.5 0m0 0c-7.04 1.71-15.79-1.49-16.25-16.25m16.25 16.25c-9.15.78-17.98-6.47-16.25-16.25m0 0c-2.62-8.25-1.28-23.65 0-32.5m0 32.5c-1.53-9.34.08-21.04 0-32.5m0 0c2.44-12.67 8.89-19.5 16.25-16.25m-16.25 16.25c-3.27-10.18 8.62-15.86 16.25-16.25"/><text x="222" y="33" fill="#364fc7" font-family="Helvetica, Segoe UI Emoji" font-size="36" style="white-space:pre" text-anchor="middle" transform="translate(339.845 1666.167)">......</text><path fill="none" stroke="#862e9c" stroke-linecap="round" stroke-width="2" d="M482.437 628.86c79.26 1.72 164.85 1.08 233.96 0m-233.96 0c59.08-.92 118.56-.11 233.96 0m0 0c19.52 3.22 25.19 10.54 27.52 27.52m-27.52-27.52c15.59-2.67 25.82 9.67 27.52 27.52m0 0c-.2 21.65 1.42 39.91 0 55.04m0-55.04c-1.79 20.13 2.15 40.58 0 55.04m0 0c-1.27 21.68-10.69 31.39-27.52 27.52m27.52-27.52c-2.73 15.15-13.44 29.34-27.52 27.52m0 0c-55.42 5.29-109.98 2.46-233.96 0m233.96 0c-85.91-2.02-167.89-2.91-233.96 0m0 0c-15.66-2.91-27.81-10.98-27.52-27.52m27.52 27.52c-21.84-.72-25.12-9.36-27.52-27.52m0 0c1.15-13.98.65-35.07 0-55.04m0 55.04c1.23-21.11.2-36.92 0-55.04m0 0c-1.16-14.94 12.63-24.07 27.52-27.52m-27.52 27.52c-3.48-17.74 8.67-25.46 27.52-27.52"/><text x="139.5" y="26" fill="#862e9c" font-family="Helvetica, Segoe UI Emoji" font-size="28" style="white-space:pre" text-anchor="middle" transform="translate(459.917 667.9)">Plugins</text></svg>